<?xml version="1.0" standalone="no"?>
<!DOCTYPE svg PUBLIC "-//W3C//DTD SVG 20010904//EN"
 "http://www.w3.org/TR/2001/REC-SVG-20010904/DTD/svg10.dtd">
<svg version="1.0" xmlns="http://www.w3.org/2000/svg"
 width="700.000000pt" height="700.000000pt" viewBox="0 0 700.000000 700.000000"
 preserveAspectRatio="xMidYMid meet">
<metadata>
Created by potrace 1.14, written by Peter Selinger 2001-2017
</metadata>
<g transform="translate(0.000000,700.000000) scale(0.100000,-0.100000)"
fill="#000000" stroke="none">
<path d="M4185 6982 c8 -8 -15 -42 -28 -42 -8 0 -7 4 3 11 13 9 13 10 0 6 -9
-2 -15 -14 -14 -30 1 -21 -2 -25 -12 -17 -10 9 -11 7 -7 -9 3 -12 10 -18 16
-14 6 3 7 1 3 -5 -4 -6 -14 -8 -24 -5 -15 6 -16 5 -2 -12 10 -13 11 -16 2 -11
-10 6 -13 3 -12 -10 1 -11 1 -22 0 -26 -1 -5 -3 -11 -4 -15 -1 -5 -5 -14 -9
-20 -5 -8 -3 -13 3 -13 7 0 9 -9 6 -22 -3 -13 -3 -17 0 -10 4 9 9 10 19 2 9
-8 15 -8 20 0 3 5 12 10 18 10 7 0 6 -4 -3 -10 -13 -9 -13 -10 0 -11 8 -1 19
-1 23 0 4 1 3 -9 -4 -21 -6 -13 -8 -20 -4 -16 11 11 47 -11 39 -24 -4 -6 -3
-8 3 -5 6 4 14 0 17 -9 4 -11 10 -13 19 -6 7 6 20 6 32 1 18 -8 17 -9 -4 -5
-22 5 -23 4 -5 -13 14 -13 23 -16 32 -8 9 7 11 6 6 -7 -8 -22 15 -49 38 -43
22 6 33 -8 37 -48 0 -8 9 -15 19 -15 14 0 15 2 2 10 -8 5 -10 10 -5 10 6 0 16
-4 23 -9 11 -6 10 -10 -5 -15 -17 -7 -17 -8 -1 -17 9 -5 16 -15 14 -22 -1 -6
-1 -9 1 -4 3 4 9 5 14 1 5 -3 8 -2 7 3 -2 4 2 8 7 8 6 0 9 -2 8 -5 -1 -3 -4
-13 -8 -22 -5 -13 -2 -17 14 -15 12 1 21 6 21 11 0 5 3 6 6 3 4 -4 2 -13 -4
-20 -16 -19 9 -52 40 -52 17 0 23 -6 25 -25 l2 -25 -8 25 c-8 22 -9 23 -10 4
-1 -27 9 -36 25 -23 7 6 19 9 26 6 8 -3 5 -6 -7 -6 -16 -1 -13 -7 18 -36 20
-19 33 -35 29 -35 -4 0 -12 4 -18 10 -6 6 -15 6 -24 -1 -13 -9 -13 -10 0 -8
21 3 51 -11 45 -22 -6 -9 30 -31 38 -23 3 3 3 -4 0 -15 -4 -15 -1 -21 8 -19 7
2 14 -6 16 -17 1 -11 0 -14 -3 -7 -3 6 -13 12 -22 12 -13 0 -13 -2 3 -14 11
-8 26 -11 35 -8 12 5 13 3 3 -9 -9 -11 -8 -18 1 -32 7 -9 17 -17 21 -17 5 0 0
9 -10 20 -10 11 -14 20 -9 20 5 0 16 -10 24 -22 14 -23 16 -28 18 -61 2 -14 7
-17 23 -12 14 5 20 3 18 -7 -3 -28 1 -39 14 -32 8 5 8 2 -2 -9 -9 -11 -10 -17
-2 -17 6 0 10 -3 10 -7 -4 -23 3 -35 16 -30 8 4 17 1 21 -5 4 -7 3 -8 -4 -4
-18 11 -14 -1 9 -28 12 -13 20 -27 19 -31 -1 -4 4 -12 12 -16 9 -6 6 -9 -12
-10 -23 0 -23 -1 -5 -8 11 -5 27 -6 35 -4 13 4 13 4 0 -6 -8 -5 -16 -19 -16
-30 -1 -16 2 -18 17 -11 26 14 33 12 19 -5 -12 -14 -7 -19 13 -16 5 1 6 -3 2
-9 -3 -6 -11 -8 -16 -5 -5 4 -9 1 -9 -4 0 -6 7 -11 15 -11 8 0 15 -7 15 -15 0
-8 -5 -15 -12 -15 -6 0 -8 -3 -5 -6 4 -4 13 -1 22 6 8 7 15 11 16 9 0 -2 2
-15 3 -28 2 -14 8 -27 14 -29 7 -2 12 -9 12 -15 -1 -7 -12 2 -26 18 l-26 30
18 -32 c10 -18 22 -33 26 -33 4 0 8 -9 8 -21 0 -13 -4 -18 -12 -13 -7 4 -8 3
-4 -5 6 -9 11 -9 24 1 12 10 14 10 8 1 -4 -7 -2 -13 3 -13 6 0 11 -5 11 -11 0
-5 -4 -8 -8 -5 -4 2 -8 -6 -8 -19 0 -23 16 -26 49 -10 6 4 0 -3 -15 -15 -16
-12 -28 -27 -28 -33 0 -8 3 -7 9 1 7 11 10 10 15 -3 3 -9 3 -22 0 -28 -5 -8
-2 -7 7 1 7 6 18 12 24 12 5 0 3 -5 -5 -11 -11 -8 -12 -12 -2 -16 6 -2 12 -9
12 -14 0 -6 -4 -8 -8 -5 -4 2 -8 -4 -8 -14 0 -10 3 -18 6 -18 22 2 30 -5 30
-27 0 -24 6 -28 42 -28 10 0 15 -3 13 -8 -3 -4 -18 -6 -33 -3 -25 4 -25 3 -7
-8 25 -15 47 -19 39 -7 -3 5 2 9 11 9 10 0 13 -5 9 -12 -5 -9 -2 -8 9 1 15 12
20 11 40 -5 18 -16 19 -16 8 -1 -12 15 -11 17 13 17 18 0 25 4 20 12 -4 7 -3
8 4 4 7 -4 12 -14 12 -22 0 -8 4 -14 10 -14 5 0 7 7 3 16 -5 14 -3 15 15 5 32
-17 37 -13 11 10 -22 18 -22 19 -3 10 12 -6 24 -7 28 -4 3 3 6 0 6 -7 0 -7 3
-10 6 -7 4 4 2 12 -4 20 -7 8 -7 18 -2 27 8 12 10 11 11 -5 0 -11 3 -14 6 -7
7 18 -15 42 -33 35 -9 -3 -12 0 -9 9 3 8 -3 25 -15 38 -11 13 -20 17 -20 10 0
-7 -3 -11 -6 -7 -3 3 -3 10 1 16 4 7 15 5 33 -5 19 -11 22 -12 10 -2 -10 8
-14 19 -10 23 4 5 2 6 -3 2 -6 -3 -17 -2 -25 4 -12 7 -12 9 -1 9 8 0 4 8 -10
21 -13 11 -18 18 -12 14 9 -4 12 2 11 21 -2 17 -11 29 -26 35 -19 7 -24 29 -6
29 3 0 2 -4 -1 -10 -10 -16 1 -12 15 6 8 8 9 14 4 13 -5 -1 -17 -1 -27 0 -17
1 -17 2 -3 17 17 16 13 34 -7 34 -8 0 -8 -3 1 -9 11 -7 11 -9 0 -14 -10 -3
-14 3 -14 18 0 13 4 22 8 19 4 -3 5 2 2 10 -3 9 -10 14 -14 11 -9 -6 -23 12
-26 33 -1 6 2 10 7 6 5 -3 7 -10 4 -15 -4 -5 -1 -9 4 -9 25 0 3 40 -25 45 -10
2 -23 4 -29 4 -5 1 -3 5 5 11 9 5 19 5 27 -2 10 -8 12 -7 7 6 -3 9 -12 16 -20
16 -8 0 -11 6 -7 17 4 11 3 14 -5 9 -7 -4 -12 -3 -12 3 0 5 6 12 13 14 10 4
10 6 0 6 -7 1 -13 6 -13 12 0 5 5 7 12 3 7 -4 8 -3 4 4 -4 6 -13 9 -20 6 -8
-3 -17 0 -22 7 -4 7 -3 10 4 5 6 -3 14 -1 18 5 4 7 3 9 -4 5 -18 -11 -38 19
-37 56 1 22 -3 35 -11 35 -9 0 -10 -5 -3 -18 5 -10 5 -20 0 -23 -12 -8 -21 4
-15 19 3 7 0 16 -5 20 -6 3 -9 11 -5 16 3 5 -3 17 -13 27 -11 9 -13 13 -7 9
19 -12 6 27 -16 51 -10 11 -16 23 -12 28 4 4 -1 4 -11 1 -15 -6 -16 -4 -7 13
9 16 8 18 -5 14 -8 -4 -15 -11 -15 -17 0 -6 -3 -7 -6 -4 -4 4 -1 13 6 22 8 10
9 15 1 15 -6 0 -11 5 -11 11 0 5 5 7 12 3 6 -4 8 -3 4 4 -3 6 -19 9 -34 6
l-27 -4 24 13 c20 12 21 15 7 20 -11 5 -15 3 -10 -5 4 -7 3 -8 -5 -4 -9 6 -9
11 1 24 11 13 11 14 -1 7 -11 -6 -13 -4 -9 7 4 8 0 15 -8 15 -7 0 -11 -3 -9
-7 2 -4 -3 -7 -11 -7 -10 0 -11 4 -4 11 14 14 13 29 -2 20 -10 -6 -10 -4 0 8
8 10 9 19 3 22 -5 4 -15 -2 -21 -11 -11 -17 -11 -17 -6 0 7 21 -18 80 -42 99
-12 10 -14 10 -8 1 4 -7 2 -13 -3 -13 -6 0 -11 9 -11 20 0 14 -7 20 -22 21
-22 1 -22 1 2 9 l25 8 -24 1 c-16 1 -21 5 -18 16 4 8 1 17 -5 21 -7 4 -8 3 -4
-4 4 -7 2 -12 -3 -12 -6 0 -11 12 -12 28 0 24 -1 25 -9 7 -8 -19 -9 -19 -9 3
-1 15 -5 21 -13 16 -8 -5 -9 -2 -4 11 6 16 4 16 -11 4 -9 -8 -14 -9 -10 -3 9
15 -27 55 -51 57 -20 1 -19 24 2 40 6 5 3 6 -9 2 -32 -11 -39 -11 -40 0 0 6
-4 17 -10 25 -8 13 -7 13 8 1 9 -7 14 -18 10 -25 -3 -6 -2 -7 2 -3 12 11 15
38 4 31 -5 -3 -12 2 -16 12 -6 16 -7 16 -19 0 -8 -11 -14 -13 -19 -7 -3 6 -1
11 4 11 6 0 11 8 11 18 0 14 -2 15 -10 2 -7 -11 -10 -11 -10 -2 0 8 -5 10 -12
6 -9 -5 -9 -2 1 9 16 20 1 23 -18 5 -11 -11 -11 -9 -2 10 8 14 8 22 1 22 -5 0
-10 -6 -10 -12 0 -9 -3 -8 -10 2 -6 9 -5 17 3 23 7 5 4 6 -8 3 -24 -7 -53 8
-36 18 14 9 14 26 0 26 -5 0 -7 -4 -4 -10 3 -5 1 -10 -5 -10 -7 0 -14 9 -17
20 -3 11 -10 20 -15 20 -5 0 -6 5 -2 11 4 7 -1 7 -16 -1 -12 -6 -24 -9 -28 -6
-3 3 0 6 7 6 8 0 7 5 -3 16 -9 8 -14 20 -10 25 3 5 2 9 -3 8 -21 -4 -34 2 -27
13 4 7 3 8 -5 4 -6 -4 -18 -2 -26 4 -12 10 -15 9 -16 -6 0 -16 -2 -16 -9 4 -5
12 -14 22 -20 22 -5 0 -10 7 -10 15 0 8 -7 15 -15 15 -14 0 -38 33 -30 42 3 3
-2 5 -10 5 -8 0 -13 -2 -10 -5z m173 -147 c-3 -3 -9 2 -12 12 -6 14 -5 15 5 6
7 -7 10 -15 7 -18z m-228 -75 c6 -11 8 -20 6 -20 -3 0 -10 9 -16 20 -6 11 -8
20 -6 20 3 0 10 -9 16 -20z m100 -70 c11 -11 20 -26 19 -32 0 -7 -5 -3 -11 8
-5 12 -20 27 -32 32 -11 6 -15 11 -8 11 6 1 21 -8 32 -19z m115 -109 c-6 -5
-25 10 -25 20 0 5 6 4 14 -3 8 -7 12 -15 11 -17z m175 -181 c6 -11 8 -20 6
-20 -3 0 -10 9 -16 20 -6 11 -8 20 -6 20 3 0 10 -9 16 -20z m323 -44 c3 -8 0
-17 -7 -19 -10 -4 -12 1 -9 14 6 23 9 24 16 5z m21 -42 c5 -14 4 -15 -9 -4
-17 14 -19 20 -6 20 5 0 12 -7 15 -16z m165 -247 c8 -10 7 -14 -2 -14 -8 0
-14 6 -14 14 0 7 1 13 2 13 2 0 8 -6 14 -13z m-239 -7 c0 -5 -2 -10 -4 -10 -3
0 -8 5 -11 10 -3 6 -1 10 4 10 6 0 11 -4 11 -10z m60 -100 c0 -5 -5 -10 -11
-10 -5 0 -7 5 -4 10 3 6 8 10 11 10 2 0 4 -4 4 -10z m218 -485 c-3 -3 -9 2
-12 12 -6 14 -5 15 5 6 7 -7 10 -15 7 -18z m278 -131 c1 -9 0 -13 -4 -10 -3 4
-7 14 -8 22 -1 9 0 13 4 10 3 -4 7 -14 8 -22z"/>
<path d="M4269 6918 c11 -15 41 -15 41 -1 0 3 -6 3 -14 0 -7 -3 -20 0 -27 6
-11 10 -11 9 0 -5z"/>
<path d="M4087 6823 c4 -11 2 -14 -5 -9 -18 11 -14 0 6 -15 9 -7 14 -9 10 -5
-4 5 -3 15 2 21 8 9 6 14 -4 18 -11 4 -13 1 -9 -10z"/>
<path d="M2801 6614 c0 -11 3 -14 6 -6 3 7 2 16 -1 19 -3 4 -6 -2 -5 -13z"/>
<path d="M2860 6620 c0 -7 -3 -10 -6 -7 -4 3 -16 1 -28 -5 -27 -15 -55 -17
-63 -5 -3 6 -1 7 5 3 6 -3 13 -2 16 3 6 9 -51 7 -61 -3 -3 -3 -13 0 -22 6 -9
7 -7 2 4 -11 l20 -24 -21 11 c-18 9 -24 8 -35 -6 -13 -15 -12 -16 3 -4 12 10
18 10 24 1 4 -8 3 -9 -5 -5 -6 4 -14 0 -17 -9 -5 -13 -9 -14 -15 -4 -13 21
-37 19 -32 -2 3 -11 0 -19 -6 -19 -7 0 -9 -5 -5 -12 4 -7 3 -8 -5 -4 -9 6 -9
11 -1 21 8 10 8 15 -1 21 -7 4 -9 3 -5 -4 3 -6 1 -14 -5 -17 -5 -4 -8 -13 -6
-19 3 -8 -4 -12 -17 -12 -12 1 -20 -4 -18 -12 2 -10 -4 -12 -20 -7 -13 3 -18
3 -13 -2 10 -7 11 -21 5 -40 -1 -5 -2 -11 -1 -15 0 -5 -5 -7 -12 -5 -6 1 -11
-6 -11 -15 1 -10 -3 -16 -9 -15 -6 1 -11 -4 -12 -12 0 -17 -25 -28 -25 -11 0
6 6 8 13 4 6 -4 9 -4 5 1 -5 5 3 23 17 41 15 19 21 35 15 39 -10 6 -11 5 -14
-15 0 -6 -8 -15 -16 -20 -8 -5 -11 -10 -6 -10 5 0 2 -8 -6 -17 -22 -26 -33
-47 -21 -40 6 4 14 0 17 -9 9 -23 7 -31 -4 -14 -8 13 -11 13 -22 1 -10 -10
-10 -12 0 -7 7 5 12 1 12 -9 0 -9 -4 -13 -10 -10 -6 3 -7 -1 -4 -9 3 -9 11
-13 17 -9 6 3 7 1 3 -6 -5 -8 -12 -9 -20 -2 -17 14 -12 -51 7 -88 11 -22 11
-28 1 -28 -7 0 -11 4 -8 8 2 4 0 10 -5 13 -11 7 -9 -13 3 -33 6 -9 5 -12 -2
-7 -6 3 -14 2 -17 -4 -4 -6 -3 -10 2 -9 22 4 32 -3 30 -20 0 -11 -5 -17 -9
-15 -4 3 -8 0 -8 -5 0 -10 14 -15 33 -12 4 0 7 -3 7 -9 0 -5 -10 -10 -22 -10
-20 -1 -18 -4 12 -20 19 -11 31 -19 27 -20 -5 0 -16 4 -26 9 -13 7 -18 6 -18
-4 0 -8 3 -12 6 -10 4 2 15 -3 25 -11 16 -12 17 -16 5 -30 -12 -15 -11 -16 11
-9 l25 7 -23 -20 c-21 -18 -21 -20 -5 -27 10 -5 21 -7 26 -7 4 1 6 -4 5 -10
-2 -7 3 -12 10 -10 6 1 12 -2 12 -8 0 -13 -17 -13 -25 0 -3 6 -12 10 -18 10
-7 0 -4 -6 5 -14 10 -7 14 -17 10 -21 -4 -5 1 -5 12 -1 14 5 17 2 12 -9 -3 -8
0 -15 6 -15 6 0 5 -7 -3 -17 -13 -17 -13 -17 13 0 19 12 29 14 34 5 4 -6 3 -8
-3 -5 -6 4 -17 0 -24 -9 -7 -8 -8 -14 -3 -13 5 1 16 1 23 0 12 -1 12 -4 3 -13
-17 -17 -15 -33 2 -19 10 9 17 7 27 -6 8 -9 9 -14 3 -10 -7 4 -14 0 -17 -8 -4
-10 -1 -12 10 -8 13 5 15 2 10 -11 -4 -10 -3 -15 3 -11 9 6 14 -8 11 -27 0 -5
2 -7 7 -7 18 3 32 -2 32 -12 0 -5 -4 -8 -8 -5 -5 3 -9 -2 -9 -10 0 -10 4 -11
11 -4 13 13 29 13 21 0 -3 -5 -2 -10 4 -10 5 0 11 3 14 8 2 4 2 2 1 -5 -3 -14
20 -35 29 -26 4 3 7 1 7 -5 0 -15 -13 -15 -27 -1 -9 9 -11 7 -9 -6 1 -9 11
-22 21 -27 13 -8 16 -7 11 1 -4 6 -2 11 3 11 6 0 11 -9 11 -21 0 -13 -4 -18
-12 -13 -10 5 -10 3 0 -7 11 -12 14 -12 22 1 8 13 10 12 10 -3 0 -12 4 -16 13
-11 7 5 7 2 -2 -10 -8 -9 -10 -16 -5 -15 21 4 32 -2 39 -18 5 -15 4 -16 -6 -5
-16 15 -29 16 -29 1 0 -5 4 -8 8 -5 5 3 18 -3 28 -13 11 -10 27 -17 37 -15 11
1 14 -2 10 -9 -16 -25 -1 -67 23 -67 5 0 3 5 -4 12 -15 15 -15 28 -1 28 5 0 8
-4 5 -9 -4 -5 0 -11 6 -14 10 -3 10 -8 -1 -21 -8 -9 -10 -16 -5 -15 28 5 37
-2 19 -15 -18 -13 -18 -14 7 -9 27 5 46 -11 27 -23 -8 -5 -9 -3 -4 6 5 9 4 11
-4 6 -15 -9 -3 -29 13 -23 7 3 19 1 27 -5 11 -8 10 -9 -3 -4 -10 3 -18 1 -18
-4 0 -6 10 -10 23 -11 l22 0 -22 -9 c-32 -13 -28 -18 10 -14 23 3 28 1 17 -6
-12 -8 -12 -10 -1 -10 8 0 11 -7 9 -18 -4 -15 0 -18 18 -16 13 1 22 -1 19 -6
-3 -4 2 -13 11 -20 8 -7 13 -19 10 -27 -3 -7 1 -13 9 -13 8 0 15 -5 15 -11 0
-5 -4 -8 -8 -5 -4 2 -14 0 -22 -6 -12 -8 -12 -9 2 -4 10 3 20 1 23 -4 4 -6 16
-10 28 -11 20 -1 20 -2 -3 -9 -19 -6 -20 -8 -6 -9 11 -1 16 -6 13 -14 -3 -8 1
-14 8 -14 7 0 11 7 8 16 -4 14 -3 14 5 1 7 -9 7 -18 1 -26 -6 -8 -4 -16 8 -25
11 -9 14 -10 9 -1 -4 6 -2 12 3 12 6 0 12 -7 12 -15 1 -8 2 -21 3 -27 1 -7 10
-11 21 -10 17 3 17 2 4 -14 -8 -11 -9 -15 -1 -10 7 4 12 1 12 -9 0 -9 5 -13
10 -10 6 4 7 11 4 17 -4 7 -2 8 5 4 6 -4 8 -12 5 -18 -5 -7 -1 -9 9 -5 11 4
14 2 11 -8 -3 -8 -11 -13 -17 -11 -7 1 -9 1 -4 -1 4 -3 5 -9 2 -14 -4 -5 2 -6
11 -2 14 5 16 3 11 -11 -4 -10 -3 -15 3 -11 6 3 10 1 10 -5 0 -6 5 -8 10 -5 6
3 10 -1 10 -10 0 -10 -5 -13 -12 -9 -6 4 -8 3 -5 -3 4 -6 18 -9 32 -8 14 2 23
-1 19 -6 -3 -5 0 -9 5 -9 6 0 11 -5 11 -12 0 -6 -7 -4 -18 5 -15 14 -19 14
-19 3 0 -8 5 -14 11 -13 6 1 10 -4 8 -11 -1 -8 2 -11 7 -8 5 4 12 2 16 -4 3
-5 1 -10 -6 -10 -7 0 -9 -3 -6 -6 4 -4 13 -1 22 6 13 11 14 10 9 -5 -5 -13 -4
-16 4 -11 8 5 10 2 6 -8 -9 -24 5 -39 24 -24 10 8 13 9 9 1 -4 -7 0 -16 10
-23 15 -8 12 -9 -12 -5 -27 5 -28 4 -7 -5 15 -6 21 -14 16 -22 -5 -8 0 -7 11
2 17 14 18 13 12 -3 -5 -13 -2 -17 10 -15 13 2 18 -4 18 -22 0 -14 -4 -29 -10
-33 -5 -5 1 -5 14 -2 16 5 21 4 17 -4 -5 -7 -1 -8 10 -4 11 4 15 3 11 -4 -4
-6 7 -23 24 -38 30 -24 30 -26 8 -22 -13 2 -18 2 -11 0 7 -3 10 -8 8 -12 -3
-4 5 -8 16 -8 26 -2 40 -23 28 -39 -15 -17 0 -25 23 -13 12 7 17 7 13 1 -3 -6
-3 -12 1 -15 5 -2 1 -2 -7 0 -11 2 -11 0 2 -10 13 -10 14 -17 6 -25 -8 -8 -5
-9 11 -5 12 3 21 1 21 -6 0 -6 -5 -11 -11 -11 -5 0 -7 -5 -3 -11 3 -6 9 -7 13
-3 12 18 29 13 24 -6 -3 -12 0 -20 7 -20 8 0 10 -8 7 -21 -4 -16 -3 -18 9 -8
7 6 11 16 7 23 -4 6 1 5 10 -3 18 -14 23 -26 8 -17 -5 3 -11 -1 -15 -9 -3 -9
3 -19 14 -25 11 -6 19 -14 18 -18 -1 -4 5 -20 15 -37 9 -16 16 -24 17 -17 0
19 18 14 25 -8 3 -11 12 -20 19 -20 8 0 20 -8 27 -17 9 -11 10 -14 2 -9 -9 5
-12 0 -11 -18 1 -13 6 -22 10 -20 5 3 6 10 3 15 -4 5 -2 9 3 9 6 0 13 -7 16
-16 3 -8 2 -13 -3 -10 -5 3 -11 -1 -14 -8 -4 -10 0 -14 13 -11 16 3 17 0 8
-26 -13 -37 -59 -41 -76 -6 -7 14 -11 16 -9 5 1 -9 -2 -17 -8 -17 -5 0 -9 10
-7 22 4 22 3 22 -12 2 l-16 -20 7 20 c3 11 11 23 17 27 8 5 7 8 -1 8 -6 0 -15
-5 -18 -10 -8 -13 -25 -3 -25 13 0 7 4 6 10 -3 5 -8 10 -11 10 -7 0 5 -10 21
-22 35 -14 18 -19 21 -14 8 5 -16 1 -15 -28 7 -18 14 -37 23 -41 19 -5 -4 -5
-2 -2 5 4 6 1 14 -5 16 -8 3 -8 6 -2 6 6 1 19 -8 29 -19 10 -11 23 -20 29 -20
6 0 3 5 -7 11 -9 6 -14 16 -11 22 4 7 4 9 0 5 -11 -9 -50 28 -43 40 4 5 0 9
-7 9 -8 0 -12 -7 -9 -16 3 -11 1 -10 -7 2 -10 15 -8 21 7 33 17 14 16 14 -4 4
-13 -6 -23 -16 -23 -22 0 -6 -3 -9 -6 -6 -3 4 0 16 6 28 11 21 11 21 -17 5
-17 -11 -21 -12 -10 -2 21 17 23 31 3 24 -8 -3 -22 5 -32 18 -10 13 -22 21
-27 18 -5 -3 -4 5 3 17 6 12 9 24 6 28 -3 3 -6 1 -6 -4 0 -5 -8 -10 -19 -10
-11 0 -17 5 -14 13 3 7 9 10 14 7 5 -3 9 0 9 5 0 6 -7 11 -16 11 -9 0 -12 5
-8 13 6 8 3 8 -9 -1 -14 -12 -16 -11 -12 7 3 15 -1 21 -15 21 -10 0 -21 7 -24
16 -3 8 -10 13 -15 10 -5 -3 -7 3 -4 14 3 12 0 20 -6 20 -7 0 -9 -4 -6 -10 3
-6 -1 -7 -10 -4 -14 6 -14 8 2 21 17 13 16 14 -8 10 -22 -3 -26 0 -23 20 1 12
-3 26 -8 30 -6 3 -8 1 -4 -5 3 -6 2 -14 -4 -17 -6 -4 -10 -3 -9 2 4 22 -3 33
-18 33 -15 0 -16 2 -3 10 13 8 12 10 -5 11 -11 1 -24 1 -28 0 -5 -1 -6 3 -2 9
3 6 11 7 17 4 6 -4 8 -2 4 4 -3 5 0 13 6 15 7 3 -2 4 -20 2 -18 -2 -30 0 -26
6 3 5 9 7 13 5 4 -3 8 1 8 9 0 11 -5 12 -21 3 -20 -11 -20 -10 -4 9 17 19 17
19 -10 15 -21 -3 -29 0 -29 12 0 12 3 13 14 4 11 -8 12 -7 7 6 -5 12 -14 16
-30 12 -12 -3 -25 -2 -28 3 -3 5 0 8 7 7 6 0 12 4 12 9 0 6 -4 9 -9 7 -5 -2
-6 4 -3 12 7 18 -20 36 -43 29 -10 -3 -10 0 3 10 18 15 18 15 -2 22 -12 3 -19
10 -16 15 3 5 -4 7 -15 5 -11 -2 -20 1 -20 6 0 6 -4 8 -8 5 -4 -2 -9 5 -9 17
-2 20 -1 20 8 5 6 -10 15 -18 20 -18 6 0 3 7 -5 16 -9 8 -13 20 -10 26 5 7 2
8 -7 2 -8 -4 -23 -9 -34 -11 -11 -1 -14 1 -7 3 6 3 12 10 12 15 0 6 -5 7 -11
3 -8 -4 -9 1 -4 17 7 21 6 22 -9 10 -16 -14 -20 -10 -17 22 1 9 -3 17 -9 17
-6 0 -9 4 -5 9 3 5 0 13 -6 17 -7 4 -9 3 -6 -3 4 -6 -2 -13 -13 -16 -18 -5
-18 -4 -2 22 16 25 16 26 -2 11 -18 -14 -19 -13 -14 7 5 20 4 21 -14 12 -11
-6 -18 -7 -14 -1 3 5 -3 20 -14 32 -11 12 -17 28 -13 34 4 6 -1 5 -10 -3 -20
-16 -23 -1 -4 18 10 11 8 11 -10 2 -19 -10 -23 -9 -23 4 0 9 5 13 10 10 6 -3
10 -1 10 4 0 6 -9 11 -20 11 -22 0 -25 10 -10 28 6 6 7 10 4 7 -4 -3 -14 1
-22 8 -13 10 -14 9 -7 -3 6 -12 5 -13 -5 -3 -11 10 -11 15 1 30 12 16 11 16
-8 -1 -13 -10 -20 -24 -16 -30 3 -6 2 -7 -2 -3 -12 10 -15 38 -4 31 5 -3 9 0
9 5 0 6 -7 11 -16 11 -11 0 -15 6 -11 20 4 15 -1 22 -18 26 -22 5 -63 41 -57
50 1 2 2 9 2 15 0 8 -4 8 -14 0 -12 -10 -13 -8 -9 8 3 12 1 21 -6 21 -6 0 -11
9 -11 19 0 11 -4 22 -9 25 -4 3 -7 -6 -5 -19 1 -14 -2 -23 -7 -19 -5 3 -7 9
-4 14 7 11 -5 40 -17 40 -5 0 -6 -4 -3 -10 3 -5 2 -10 -4 -10 -13 0 -9 52 4
63 6 5 4 7 -5 4 -8 -2 -15 -9 -15 -15 0 -5 -3 -13 -7 -17 -3 -4 -5 5 -4 19 3
20 0 24 -9 16 -9 -8 -12 -6 -12 7 0 40 -3 44 -21 34 -18 -10 -20 -5 -24 48 -1
10 -4 10 -13 -3 -10 -14 -14 -14 -18 -3 -3 8 0 20 6 27 9 10 9 11 0 6 -7 -4
-13 -2 -13 4 0 6 -4 9 -9 6 -5 -3 -12 2 -15 11 -6 14 -9 15 -15 4 -7 -10 -9
-10 -14 2 -6 16 9 17 31 3 7 -4 16 -6 18 -3 3 3 -8 11 -25 18 -20 9 -26 16
-18 21 8 5 6 8 -5 8 -10 0 -18 -5 -18 -12 0 -6 -3 -9 -6 -5 -3 3 -2 12 2 19
12 19 14 39 3 32 -5 -3 -7 -9 -4 -14 3 -4 -4 -6 -15 -3 -19 5 -19 6 -4 18 14
9 14 14 4 20 -9 5 -11 4 -6 -3 4 -7 1 -12 -7 -12 -7 0 -14 6 -15 13 -4 43 -20
67 -47 66 -5 0 1 -6 15 -13 l25 -14 -26 1 c-17 1 -26 7 -24 17 3 18 -14 42
-25 35 -5 -3 -6 4 -3 15 3 11 0 20 -6 20 -6 0 -11 9 -11 19 0 27 -15 34 -34
16 -13 -14 -15 -13 -13 4 0 11 4 19 8 18 4 -1 6 2 6 8 -1 5 -8 8 -16 7 -7 -2
-10 1 -7 7 9 14 -22 41 -47 42 -12 0 -16 3 -9 6 6 2 12 9 12 14 0 6 -4 7 -10
4 -5 -3 -18 -1 -27 5 -17 11 -17 11 0 6 9 -3 17 -1 17 4 0 6 -5 10 -11 10 -5
0 -7 6 -3 13 5 8 2 8 -9 -2 -15 -12 -17 -11 -17 3 0 9 -4 16 -10 16 -5 0 -10
6 -10 14 0 8 -7 17 -16 20 -23 9 -36 7 -29 -4 3 -5 4 -10 1 -10 -3 0 -10 9
-16 19 -7 14 -7 22 2 27 7 4 8 3 4 -4 -4 -7 -2 -12 4 -12 17 0 6 25 -11 25 -8
1 -13 7 -11 14 1 7 -2 10 -8 6 -13 -8 -42 14 -35 25 3 4 -12 4 -33 0 -34 -8
-35 -7 -18 6 19 14 19 14 -5 15 -13 1 -28 1 -32 0 -5 -1 -11 7 -14 18 -4 16
-10 18 -27 11 -14 -5 -28 -3 -40 6 -11 7 -24 11 -30 7 -6 -3 -7 -2 -3 3 12 12
30 12 40 -1 5 -6 7 -4 4 5 -5 18 -67 16 -80 -3 -5 -7 -6 -2 -2 13 6 24 5 24
-9 6 -16 -20 -16 -20 -16 0 0 16 -2 17 -10 4 -9 -14 -15 -7 -11 14 1 5 -5 4
-13 -4 -9 -7 -16 -9 -16 -5 0 4 -7 2 -15 -5 -11 -9 -15 -9 -15 -1 0 7 -5 9
-10 6 -6 -4 -7 -11 -4 -17 4 -6 -2 -6 -15 1 -17 9 -24 8 -40 -8 -12 -12 -23
-16 -27 -10 -4 7 -10 7 -18 0 -7 -6 -17 -7 -21 -3 -5 4 -5 1 -1 -6 4 -7 12
-10 17 -7 5 4 6 -2 2 -11 -4 -11 -8 -13 -11 -6 -2 7 -8 12 -13 12 -6 0 -8 -4
-5 -8 2 -4 0 -14 -6 -22 -8 -12 -9 -12 -4 2 8 26 -8 30 -23 6 -10 -16 -10 -19
1 -12 9 6 9 2 -2 -12 -22 -29 -24 -30 -17 -12 3 9 -1 22 -9 29 -12 10 -13 9
-8 -6 5 -13 4 -16 -4 -11 -8 5 -10 2 -6 -8 4 -10 1 -16 -7 -16 -11 0 -11 -3 1
-11 12 -8 10 -9 -7 -4 -17 5 -23 2 -23 -9 0 -9 -5 -16 -11 -16 -5 0 -8 4 -4 9
3 5 1 12 -4 15 -11 7 -9 -13 3 -33 7 -11 5 -13 -7 -8 -22 8 -46 -21 -26 -34
12 -8 11 -12 -5 -24 -11 -9 -16 -20 -12 -31 4 -12 2 -15 -9 -11 -8 4 -17 1
-21 -5 -4 -6 -3 -8 4 -4 6 3 13 2 17 -4 11 -18 14 -50 4 -55 -5 -4 -9 -11 -9
-16 0 -6 6 -7 13 -3 9 6 9 4 1 -7 -6 -8 -10 -26 -9 -41 1 -15 -2 -25 -7 -22
-4 3 -6 9 -4 13 3 4 -2 8 -10 8 -10 0 -7 -8 11 -27 14 -14 25 -30 25 -36 0 -5
-4 -3 -9 4 -7 11 -9 10 -14 -3 -5 -11 -3 -14 5 -9 8 5 9 1 4 -11 -6 -18 -6
-18 16 1 12 10 18 12 11 4 -12 -17 -24 -76 -16 -84 9 -9 33 6 26 17 -4 6 -1 7
7 2 10 -6 8 -13 -11 -28 l-24 -20 25 8 c20 6 23 5 13 -6 -7 -7 -13 -18 -13
-23 0 -6 5 -4 11 4 9 12 10 11 6 -8 -3 -14 -1 -20 6 -15 6 4 8 0 4 -10 -3 -10
-2 -17 3 -17 6 0 10 -7 10 -16 0 -9 -5 -12 -12 -8 -8 4 -8 2 1 -7 10 -11 15
-11 18 -1 3 6 9 12 14 12 4 0 6 -7 3 -15 -4 -9 3 -24 16 -35 13 -11 19 -20 14
-20 -6 0 -15 5 -21 11 -9 9 -11 7 -8 -7 2 -11 4 -20 4 -21 1 -1 11 1 24 6 20
8 22 6 23 -20 1 -19 12 -37 34 -55 51 -43 61 -55 54 -65 -3 -6 0 -17 7 -25 7
-9 14 -23 15 -31 3 -19 14 -30 14 -15 0 18 26 14 41 -5 13 -16 12 -17 -3 -5
-11 9 -18 10 -23 2 -3 -5 -5 -10 -3 -11 2 0 10 -2 20 -4 9 -2 24 -8 35 -15 15
-10 15 -11 1 -6 -10 3 -20 0 -24 -6 -4 -7 -3 -8 4 -4 7 4 12 2 12 -3 0 -6 6
-10 13 -9 7 2 11 -7 10 -22 -1 -14 1 -19 3 -12 3 6 13 12 22 12 15 0 15 -2 2
-10 -13 -8 -12 -10 3 -10 11 0 21 -9 24 -20 3 -11 11 -20 18 -20 7 0 12 -8 11
-17 0 -11 5 -17 13 -15 9 2 11 -3 7 -15 -6 -15 -4 -15 16 2 13 11 17 13 11 5
-16 -18 -17 -34 -1 -24 8 5 9 2 5 -9 -3 -9 -2 -19 4 -22 5 -4 6 -12 2 -18 -4
-7 0 -7 10 1 19 16 41 7 33 -13 -3 -8 4 -17 15 -20 12 -4 18 -13 15 -20 -3 -9
0 -12 10 -8 7 3 14 0 14 -7 0 -6 6 -8 13 -4 10 6 10 4 0 -7 -7 -7 -13 -18 -13
-23 0 -6 5 -4 10 4 7 11 10 11 10 2 0 -8 5 -10 13 -6 7 5 6 0 -3 -11 -8 -10
-10 -16 -4 -12 13 7 54 -19 54 -35 0 -7 -7 -3 -16 8 -15 19 -15 19 -5 -1 5
-11 18 -20 28 -20 12 0 18 -7 17 -21 -1 -16 4 -20 16 -17 10 3 24 -4 32 -16 8
-12 17 -19 20 -16 3 3 4 -6 2 -21 -2 -23 1 -25 21 -21 21 4 23 2 14 -16 -8
-15 -8 -18 1 -12 9 5 10 1 6 -16 -3 -13 -3 -18 0 -11 8 17 27 15 20 -3 -3 -9
3 -19 15 -25 11 -6 16 -16 13 -22 -5 -7 -2 -8 6 -3 10 6 8 12 -9 27 -13 10
-20 18 -16 18 4 0 21 -12 39 -27 17 -15 23 -24 14 -20 -10 3 -18 2 -18 -3 0
-6 5 -10 10 -10 6 0 9 -5 8 -12 -2 -7 6 -12 17 -13 11 0 30 -7 43 -16 19 -14
20 -18 7 -22 -8 -4 -15 -12 -14 -19 0 -10 2 -10 6 0 6 14 63 -22 63 -41 0 -6
-9 -1 -21 11 -11 12 -24 20 -30 17 -13 -9 -11 -15 4 -13 6 2 11 -3 9 -10 -1
-6 4 -11 10 -10 7 2 12 -3 10 -10 -1 -6 1 -11 5 -11 19 3 33 -2 33 -12 0 -5
-4 -8 -8 -5 -5 3 -9 -1 -9 -9 0 -12 4 -12 20 2 19 17 19 17 12 -5 -6 -21 -5
-23 12 -13 17 9 19 7 16 -22 -3 -28 -2 -30 7 -9 12 27 20 29 13 2 -3 -11 -1
-20 5 -20 5 0 13 -7 16 -16 5 -13 4 -14 -7 -6 -10 9 -14 8 -14 -2 0 -15 14
-16 35 -2 7 4 16 5 19 2 4 -3 1 -6 -5 -6 -14 0 -16 -26 -3 -35 5 -3 13 0 17 6
5 8 3 9 -6 4 -9 -5 -11 -4 -6 4 12 19 27 2 16 -18 -10 -19 -4 -31 14 -31 6 0
4 5 -4 10 -9 6 -10 10 -3 10 15 0 32 -30 26 -46 -2 -6 3 -11 11 -11 8 0 12 5
9 10 -3 6 -1 7 5 3 16 -10 15 -39 0 -31 -7 4 -2 -3 11 -14 13 -12 28 -21 35
-21 7 0 6 4 -3 9 -9 6 -10 11 -2 15 10 6 15 -6 12 -26 0 -5 5 -8 11 -8 9 0 8
-4 -2 -11 -12 -9 -11 -10 8 -6 25 6 28 -3 9 -22 -10 -10 -8 -11 7 -5 13 5 17
4 12 -4 -4 -7 -3 -12 3 -12 5 0 12 6 15 13 3 6 4 3 1 -8 -2 -11 0 -27 6 -35 9
-13 10 -12 5 2 -3 10 0 20 6 24 7 4 8 3 4 -4 -4 -7 -2 -12 3 -12 6 0 10 -3 10
-7 -3 -20 2 -34 10 -29 5 4 8 -5 6 -19 -1 -17 1 -22 9 -16 7 6 16 4 23 -4 10
-11 9 -15 -5 -19 -9 -3 -5 -4 9 -2 23 2 27 -1 24 -21 -1 -14 4 -27 11 -30 8
-3 14 -13 15 -22 0 -12 2 -13 6 -2 3 8 -2 20 -11 27 -11 8 -13 14 -7 19 6 3
11 2 11 -3 0 -4 9 -18 20 -30 12 -12 16 -22 10 -22 -5 0 -10 -5 -10 -11 0 -5
3 -8 8 -5 4 2 18 -2 32 -10 l25 -15 -25 5 c-14 3 -19 3 -12 0 6 -3 10 -10 7
-15 -4 -5 0 -6 8 -3 8 3 18 0 23 -7 5 -8 3 -10 -6 -4 -9 6 -11 4 -6 -4 6 -9
13 -8 29 6 19 16 20 16 8 1 -10 -13 -10 -18 -2 -18 7 0 9 -4 6 -10 -5 -9 7
-14 26 -12 4 1 5 -8 2 -18 -3 -12 0 -20 7 -20 7 0 9 -9 6 -22 -3 -13 -3 -17 0
-10 5 10 9 10 22 0 14 -10 15 -10 5 2 -7 8 -13 19 -13 24 0 6 5 3 11 -7 6 -9
14 -15 20 -12 11 8 -1 -28 -14 -36 -5 -3 -2 -9 7 -12 8 -3 18 -1 22 5 5 7 2 8
-6 3 -9 -5 -11 -4 -6 4 6 8 12 9 20 2 7 -6 16 -8 20 -4 4 4 4 -1 0 -11 -5 -12
-9 -14 -14 -6 -5 8 -9 8 -13 -2 -5 -14 4 -18 46 -19 15 0 16 -2 2 -15 -19 -19
-19 -21 0 -21 8 0 11 5 8 10 -3 6 -1 7 5 3 6 -4 9 -13 5 -21 -3 -10 1 -15 12
-15 10 0 14 5 9 13 -4 7 -3 9 2 4 9 -9 10 -13 13 -43 1 -14 4 -14 16 -4 9 7
18 10 22 6 3 -3 1 -6 -5 -6 -7 0 -11 -12 -10 -29 1 -16 6 -27 10 -25 4 3 8 0
8 -7 0 -7 3 -9 6 -6 4 4 1 13 -6 22 -11 13 -10 14 3 10 8 -4 18 -17 21 -31 4
-13 11 -24 17 -24 6 0 7 5 4 10 -3 5 -1 10 5 10 7 0 10 -6 7 -14 -3 -7 -2 -17
1 -22 4 -5 3 -6 -3 -1 -5 4 -14 7 -20 7 -5 0 2 -8 17 -18 22 -14 25 -21 16
-37 -7 -15 -5 -14 9 3 18 22 20 23 34 6 8 -10 9 -15 2 -11 -6 4 -14 3 -18 -3
-3 -5 1 -10 9 -10 9 0 16 -6 16 -12 0 -9 4 -8 10 2 5 8 10 10 10 5 0 -6 -6
-17 -12 -24 -11 -12 -10 -13 6 -7 13 5 17 2 13 -9 -4 -8 -2 -17 4 -21 6 -3 8
-13 5 -21 -3 -8 -2 -12 2 -9 9 6 35 -23 40 -44 3 -11 0 -11 -13 0 -13 11 -15
10 -10 -1 3 -8 -1 -23 -10 -34 -15 -20 -15 -20 -8 0 6 18 5 19 -12 5 -10 -8
-16 -10 -12 -4 10 17 -23 26 -41 12 -13 -10 -14 -10 -8 0 4 7 0 15 -11 19 -28
11 -43 36 -30 51 5 7 6 12 1 11 -21 -4 -45 2 -40 10 6 9 -26 51 -39 51 -5 0 0
-9 10 -20 23 -25 11 -26 -13 -2 -17 17 -18 20 -3 31 9 6 11 9 5 7 -7 -3 -23 6
-38 21 -14 14 -26 20 -26 13 0 -7 -9 -1 -20 13 -11 14 -20 32 -20 41 0 19 -11
21 -28 4 -7 -7 -12 -8 -12 -4 0 5 7 14 16 20 14 11 14 13 0 25 -11 9 -16 10
-16 2 0 -6 5 -11 12 -11 6 0 9 -2 6 -5 -14 -14 -35 8 -31 33 3 22 2 23 -5 8
-8 -18 -10 -17 -20 12 -7 21 -18 32 -30 32 -13 0 -22 9 -26 25 -4 14 -11 23
-16 20 -9 -5 -26 33 -22 48 1 5 -2 6 -7 2 -6 -3 -8 -13 -5 -23 5 -15 5 -15 -6
1 -6 9 -9 21 -5 26 3 5 0 13 -6 17 -8 4 -9 3 -5 -4 10 -17 -3 -15 -21 3 -8 8
-19 12 -25 9 -7 -4 -8 -2 -4 4 4 6 13 9 21 5 8 -3 15 0 15 7 0 6 -4 9 -9 6
-12 -8 -52 29 -49 44 2 6 -5 17 -15 23 -14 10 -20 9 -27 -3 -6 -9 -10 -10 -10
-3 0 6 -7 19 -16 27 -8 9 -11 16 -5 16 5 0 15 -8 21 -17 11 -17 11 -17 6 0 -3
10 -6 21 -6 23 0 2 -7 4 -16 4 -14 0 -14 3 -3 18 11 14 11 15 -1 5 -21 -19
-29 -16 -26 12 2 13 -1 22 -5 19 -5 -3 -12 1 -15 10 -3 8 -12 12 -20 9 -8 -3
-24 4 -34 15 -20 21 -20 21 11 17 17 -2 28 -1 25 2 -12 12 -60 12 -76 0 -13
-10 -13 -10 -2 4 10 13 10 19 -2 28 -8 7 -13 22 -11 34 3 16 -3 25 -23 34
l-27 13 24 -20 c16 -14 19 -20 8 -20 -8 0 -21 13 -28 29 -10 22 -17 27 -25 20
-9 -8 -11 -5 -7 10 3 13 1 21 -6 21 -7 0 -9 -5 -5 -12 5 -7 3 -8 -5 -4 -9 6
-8 13 6 29 10 11 12 17 5 13 -7 -4 -21 -2 -30 6 -15 11 -15 11 -5 -3 10 -13
10 -16 -2 -16 -7 0 -14 3 -13 6 2 25 -4 51 -13 51 -5 0 -7 -5 -3 -12 4 -7 3
-8 -4 -4 -6 4 -9 13 -6 20 3 8 0 17 -5 21 -6 3 -9 10 -6 15 3 4 -6 7 -20 5
-33 -3 -61 31 -42 53 10 13 9 14 -9 4 -16 -9 -21 -8 -21 4 0 7 5 14 11 14 6 0
5 4 -3 9 -8 5 -21 7 -29 3 -11 -4 -14 0 -10 16 4 12 0 23 -8 26 -8 3 -11 -1
-8 -12 2 -9 -1 -7 -7 6 -7 12 -15 22 -20 22 -4 0 -5 -10 -3 -22 4 -21 4 -21
-4 -3 -11 25 -4 47 12 38 6 -4 5 1 -2 10 -11 13 -19 14 -40 6 -22 -8 -25 -8
-14 2 18 19 15 29 -9 29 -19 0 -19 1 -5 16 9 8 16 18 16 22 0 3 -5 1 -12 -6
-15 -15 -32 -16 -23 -2 3 6 0 10 -7 10 -10 0 -9 3 2 11 11 8 9 9 -10 3 -22 -6
-23 -5 -11 10 8 9 9 16 3 16 -6 0 -16 -8 -22 -17 -8 -14 -10 -14 -9 -3 3 35
-1 51 -13 44 -7 -5 -9 -2 -5 9 4 11 2 14 -8 10 -8 -3 -12 -10 -8 -16 3 -5 1
-7 -5 -4 -5 4 -8 16 -5 27 3 12 0 20 -6 20 -7 0 -9 -4 -6 -10 3 -6 -1 -7 -9
-4 -9 3 -14 10 -11 15 3 4 -9 23 -27 40 -18 18 -27 29 -19 24 10 -6 12 -4 7 4
-5 7 -14 10 -20 8 -7 -3 -13 1 -13 9 0 8 7 14 16 15 11 0 12 2 3 6 -7 3 -23
-3 -34 -13 -21 -19 -21 -19 -8 2 12 19 10 25 -14 48 -14 15 -23 32 -20 38 4 7
2 8 -5 4 -13 -8 -8 -20 22 -53 11 -13 16 -23 10 -23 -6 0 -14 7 -17 16 -3 8
-11 12 -17 8 -7 -4 -9 -3 -6 2 7 13 -9 39 -24 39 -7 0 -13 8 -15 18 -1 9 2 15
7 11 5 -3 6 -10 3 -16 -4 -7 -2 -8 4 -4 14 8 5 33 -14 40 -9 3 -12 1 -9 -4 3
-6 1 -10 -4 -10 -6 0 -11 10 -11 21 0 19 -2 20 -17 8 -11 -10 -14 -10 -9 -1 4
7 2 12 -5 12 -8 0 -7 5 2 17 13 15 12 15 -10 4 -19 -11 -22 -11 -16 0 6 9 3
10 -10 5 -15 -6 -16 -4 -4 10 11 13 11 15 -2 13 -7 -1 -22 1 -32 6 -14 6 -15
10 -6 21 6 8 9 15 5 15 -3 1 -10 3 -16 4 -5 1 -15 3 -21 4 -5 0 -7 6 -3 13 4
7 3 8 -4 4 -6 -4 -9 -13 -6 -21 4 -8 9 -13 13 -10 4 2 8 -3 8 -11 0 -10 -13
-1 -32 22 -21 25 -36 35 -45 29 -9 -5 -11 -4 -6 3 4 7 1 12 -8 12 -9 0 -16 5
-16 11 0 8 -6 7 -16 -2 -15 -12 -16 -11 -11 11 4 14 4 19 1 13 -4 -8 -11 -10
-22 -4 -9 4 -27 7 -40 6 -13 -1 -26 3 -29 8 -3 6 -1 7 5 3 6 -3 13 -2 16 3 4
5 -2 8 -11 6 -10 -1 -27 5 -37 14 -19 16 -19 15 -1 -11 19 -31 15 -36 -10 -11
-22 21 -85 25 -93 4 -4 -12 -7 -11 -13 5 -7 17 -8 17 -8 1 -1 -10 -5 -16 -10
-12 -6 3 -14 -3 -20 -12 -6 -11 -11 -13 -11 -5 0 10 -5 10 -21 1 -12 -6 -19
-7 -15 -1 11 18 -22 21 -38 3 -14 -15 -14 -18 -1 -18 8 0 11 5 8 10 -3 6 -1 7
5 3 18 -11 14 -25 -6 -24 -9 0 -21 0 -27 -2 -21 -5 -36 0 -29 12 4 7 3 8 -5 4
-9 -6 -9 -11 0 -22 11 -13 2 -19 -24 -15 -11 2 -9 -13 4 -26 7 -7 3 -9 -15 -6
-16 3 -26 1 -26 -6 0 -7 6 -9 13 -5 7 4 9 3 4 -2 -12 -12 -30 -12 -40 1 -5 5
-5 -1 -2 -14 5 -15 3 -21 -3 -17 -6 3 -13 2 -16 -3 -4 -5 -1 -13 5 -17 8 -5 9
-3 4 6 -5 9 -4 11 4 6 15 -10 3 -29 -15 -22 -13 5 -19 -6 -15 -27 1 -4 -6 -15
-14 -23 -8 -9 -13 -20 -9 -25 3 -6 0 -18 -7 -27 -10 -12 -7 -11 10 3 l23 20
-18 -32 c-10 -17 -22 -29 -27 -26 -5 3 -2 -6 8 -20 13 -20 14 -30 6 -46 -14
-25 -14 -34 -1 -26 6 3 7 -1 4 -9 -3 -9 -11 -13 -18 -9 -7 4 -7 1 1 -9 7 -8 9
-18 5 -23 -4 -4 4 -5 18 -1 14 3 19 3 12 0 -6 -3 -9 -11 -6 -16 4 -7 2 -8 -4
-4 -7 4 -12 2 -12 -3 0 -6 8 -11 18 -12 14 0 14 -2 -3 -9 -16 -7 -17 -9 -3 -9
9 -1 20 -6 24 -13 4 -6 3 -8 -4 -4 -6 3 -13 2 -17 -4 -3 -5 -1 -10 4 -10 6 0
11 -5 11 -11 0 -5 -4 -8 -9 -5 -5 4 -8 -2 -7 -11 2 -10 16 -23 32 -30 20 -8
23 -12 10 -13 -13 0 -16 -3 -9 -12 6 -7 9 -23 8 -35 -1 -14 3 -19 12 -16 11 4
11 8 1 22 -11 14 -11 14 3 4 9 -7 20 -9 25 -5 5 4 0 -3 -10 -15 -20 -24 -10
-33 12 -11 9 9 11 6 7 -10 -3 -16 4 -27 21 -38 13 -9 22 -19 19 -22 -2 -3 0
-11 6 -18 7 -8 6 -14 -2 -20 -7 -4 -9 -3 -5 4 3 6 2 13 -3 16 -5 4 -8 -2 -6
-11 1 -10 9 -17 19 -15 9 2 16 -3 16 -11 0 -8 8 -21 18 -30 15 -13 21 -14 32
-4 9 8 11 8 6 0 -3 -6 -1 -15 5 -18 5 -4 8 -13 5 -21 -3 -8 0 -13 6 -11 7 1
12 -2 13 -8 1 -19 16 -35 33 -34 14 0 14 2 -2 8 -19 7 -19 8 2 13 12 4 20 2
16 -3 -3 -5 2 -12 10 -15 12 -5 13 -10 5 -26 -7 -13 -7 -18 -1 -14 6 3 17 0
25 -8 8 -8 18 -12 23 -8 5 4 3 0 -4 -9 -13 -18 -7 -30 12 -23 7 3 18 -7 26
-21 8 -15 19 -24 28 -20 10 4 12 -1 6 -17 -6 -20 -5 -21 9 -10 12 10 17 10 23
1 4 -8 3 -9 -4 -5 -7 4 -12 3 -12 -3 0 -5 9 -13 20 -16 11 -4 18 -10 15 -15
-3 -4 6 -11 20 -14 19 -5 25 -13 25 -32 0 -22 3 -24 14 -15 12 10 14 8 9 -11
-4 -18 -3 -20 6 -8 9 13 11 13 11 -1 0 -8 -6 -21 -12 -28 -11 -11 -10 -12 2
-5 27 15 42 13 47 -7 3 -11 11 -18 18 -16 6 3 12 -1 12 -8 0 -7 -9 -11 -21 -8
-20 3 -21 3 -1 -6 29 -14 47 -13 39 2 -5 9 -3 9 7 -1 12 -11 12 -14 0 -21 -7
-5 -10 -14 -6 -20 5 -9 11 -9 23 1 13 11 15 10 9 -4 -4 -13 -1 -18 9 -18 11 0
14 -6 10 -16 -3 -8 -2 -12 3 -9 6 3 14 -3 20 -12 9 -16 12 -16 21 -3 6 9 10
10 10 3 0 -7 -8 -17 -18 -23 -14 -9 -13 -10 8 -4 14 3 22 3 18 -1 -10 -11 10
-35 25 -31 7 1 9 1 5 -1 -5 -3 -8 -9 -8 -14 0 -6 5 -7 12 -3 8 5 9 2 5 -9 -4
-11 1 -20 16 -27 21 -11 21 -11 3 4 -16 13 -17 16 -4 16 17 0 32 -26 23 -40
-3 -5 -1 -11 4 -14 5 -4 13 -1 17 5 5 8 3 9 -6 4 -9 -5 -11 -4 -6 4 6 9 11 9
22 0 7 -6 11 -15 8 -20 -3 -5 -2 -15 3 -21 4 -7 8 -17 8 -23 1 -5 6 -9 13 -7
7 1 15 -5 19 -15 8 -20 43 -57 43 -45 0 5 6 9 13 9 7 0 13 -11 12 -26 0 -18 5
-25 16 -24 8 2 20 -7 25 -20 6 -12 9 -17 8 -10 -2 6 5 17 14 24 14 11 15 11 5
0 -6 -7 -9 -20 -6 -28 5 -12 7 -12 14 -1 6 9 8 5 7 -12 -2 -17 2 -25 12 -25
19 0 33 -22 24 -38 -5 -8 -2 -7 9 2 10 8 20 11 24 7 3 -3 1 -6 -5 -6 -7 0 -12
-7 -12 -16 0 -13 3 -14 14 -5 11 9 16 9 22 0 4 -7 3 -9 -3 -6 -6 4 -13 0 -16
-8 -4 -10 -1 -12 10 -8 10 4 14 2 9 -5 -3 -6 -2 -13 3 -16 5 -4 13 -1 17 5 5
8 3 9 -6 4 -9 -5 -11 -4 -6 4 11 17 25 4 19 -19 -7 -26 13 -50 39 -45 17 4 19
0 16 -20 -4 -21 -2 -23 13 -15 23 13 38 13 19 0 -13 -9 -13 -10 0 -11 8 -1 19
-1 23 0 5 1 6 -3 2 -9 -3 -6 -11 -7 -17 -4 -7 4 -8 2 -4 -4 4 -7 2 -12 -5 -12
-7 0 -10 -3 -7 -6 4 -3 16 0 29 6 19 11 21 10 16 -4 -3 -8 -2 -18 3 -21 4 -3
10 0 12 7 3 9 6 9 12 0 4 -7 2 -12 -3 -12 -6 0 -11 -5 -11 -11 0 -6 9 -8 20
-4 15 5 20 2 20 -12 0 -15 -2 -16 -11 -3 -9 13 -10 13 -6 0 2 -8 12 -14 22
-12 10 2 14 -1 10 -7 -9 -15 8 -14 24 2 11 10 12 9 5 -3 -5 -8 -9 -21 -10 -28
-2 -11 1 -11 14 0 9 7 14 8 10 4 -4 -5 -3 -15 2 -22 6 -6 9 -18 8 -25 -2 -8 4
-13 14 -11 9 1 20 -3 24 -9 5 -8 3 -9 -6 -4 -9 6 -11 4 -5 -5 6 -10 11 -9 23
6 12 16 14 16 9 2 -7 -19 19 -51 34 -42 5 3 9 2 8 -3 -3 -19 2 -34 10 -28 5 3
13 0 17 -6 4 -8 3 -9 -4 -5 -7 4 -12 2 -12 -3 0 -6 12 -11 28 -12 24 0 25 -1
7 -9 -19 -8 -19 -9 3 -9 12 -1 22 -7 22 -15 0 -14 27 -31 43 -27 5 1 6 -3 2
-9 -4 -7 -13 -7 -28 1 -21 9 -21 9 -4 -5 11 -8 26 -12 35 -9 10 4 13 2 8 -5
-4 -7 -3 -12 3 -12 5 0 12 6 15 13 3 6 3 2 0 -10 -3 -16 1 -25 18 -35 13 -7
26 -11 29 -10 4 1 5 -8 2 -18 -4 -14 0 -20 11 -20 9 0 16 -7 16 -16 0 -8 4
-13 9 -10 9 6 23 -18 30 -50 0 -4 7 -1 15 5 11 9 15 8 20 -5 3 -9 3 -21 0 -27
-3 -7 2 -3 11 8 17 20 17 20 10 -3 -5 -17 -3 -23 7 -21 7 1 20 1 28 0 12 -1
11 -4 -3 -12 -9 -6 -15 -15 -11 -20 3 -6 12 -5 21 3 14 11 15 10 9 -12 -5 -18
-5 -21 3 -10 5 8 13 11 17 7 4 -3 1 -14 -6 -22 -11 -13 -11 -16 1 -13 8 2 13
-3 11 -12 -3 -12 -1 -13 9 -3 15 15 33 17 24 3 -8 -13 8 -13 21 0 7 7 11 6 11
-4 0 -8 -4 -13 -8 -10 -4 2 -10 0 -14 -6 -3 -5 1 -10 10 -10 9 0 13 -5 10 -10
-6 -10 9 -15 30 -10 6 1 7 -2 3 -6 -4 -4 -2 -14 4 -23 7 -9 2 -7 -11 4 l-24
20 13 -24 c6 -13 8 -21 3 -18 -5 3 -15 2 -23 -3 -9 -6 -18 -3 -27 8 -12 15
-13 13 -8 -13 3 -16 2 -23 -1 -15 -8 17 -40 50 -50 50 -3 0 -3 -7 0 -16 3 -9
2 -12 -5 -9 -6 4 -8 14 -5 22 5 11 2 13 -10 9 -15 -6 -15 -4 -3 10 13 16 12
16 -11 4 -24 -13 -24 -12 -10 5 14 17 13 18 -2 12 -11 -4 -15 -2 -13 6 8 20
-10 38 -39 41 -15 2 -36 13 -47 25 -11 12 -24 19 -29 16 -4 -3 -6 4 -3 15 3
11 9 17 14 14 5 -3 7 -10 4 -15 -3 -5 1 -6 9 -3 12 5 12 8 -2 23 -15 15 -18
15 -29 1 -10 -12 -14 -13 -25 -2 -11 11 -10 12 7 7 19 -6 19 -6 2 8 -14 11
-15 16 -5 21 7 3 3 3 -9 0 -18 -4 -22 -2 -16 12 5 14 3 15 -18 4 -21 -12 -22
-11 -12 2 10 12 10 18 -2 34 -8 10 -15 14 -15 9 0 -6 5 -16 12 -23 7 -7 9 -12
4 -12 -12 0 -38 29 -32 38 2 4 0 14 -6 22 -8 12 -8 11 -3 -5 3 -11 3 -16 -1
-12 -4 4 -14 1 -23 -5 -13 -10 -14 -10 -3 2 17 19 16 46 -1 32 -9 -8 -17 -8
-27 0 -12 8 -12 9 3 4 11 -3 17 0 17 9 0 9 -8 12 -20 10 -14 -3 -18 0 -13 8
11 18 12 37 2 37 -5 0 -9 -4 -9 -10 0 -5 -5 -10 -10 -10 -6 0 -10 8 -8 18 2
13 -4 17 -24 17 -15 1 -31 5 -35 10 -4 4 -3 5 4 1 8 -4 11 1 10 14 -1 13 -5
16 -11 10 -17 -17 -29 -11 -15 7 10 11 10 14 2 9 -8 -4 -13 -2 -13 5 0 7 -8 9
-21 6 -16 -4 -18 -3 -8 9 9 11 9 14 0 14 -7 0 -9 5 -5 11 4 8 0 8 -15 0 -17
-9 -20 -9 -15 2 3 8 -2 17 -11 21 -10 3 -15 12 -12 20 4 10 0 12 -16 8 -20 -5
-21 -4 -7 14 15 18 14 18 -15 0 l-30 -19 20 23 c11 13 15 20 9 17 -7 -4 -17
-1 -23 7 -9 11 -9 15 1 20 7 3 3 3 -9 0 -15 -3 -23 1 -28 15 -3 11 -9 20 -13
20 -20 -3 -32 2 -27 11 3 6 1 10 -4 10 -6 0 -11 -5 -11 -12 0 -6 -6 -3 -14 7
-8 11 -12 23 -10 27 3 5 0 8 -6 8 -6 0 -9 4 -6 9 3 5 -6 12 -19 15 -14 4 -23
11 -20 16 3 6 -1 10 -10 10 -12 0 -15 6 -10 23 5 16 4 18 -3 8 -6 -8 -17 -11
-27 -7 -15 5 -15 9 -4 23 8 9 9 14 2 10 -6 -4 -19 0 -27 9 -11 10 -16 11 -16
3 0 -7 -3 -9 -6 -6 -4 4 -1 13 6 21 10 13 7 15 -19 11 -18 -2 -29 0 -25 6 3 5
10 7 15 4 5 -3 6 1 3 10 -4 9 -9 13 -12 10 -3 -3 -12 5 -20 17 -8 13 -11 16
-8 5 5 -15 2 -16 -14 -7 -11 6 -20 13 -20 16 0 3 5 2 12 -2 6 -4 3 4 -8 18
-15 21 -22 24 -33 15 -11 -10 -13 -8 -7 11 4 12 4 22 -1 21 -22 -4 -43 2 -38
11 3 5 1 10 -5 10 -6 0 -8 5 -4 11 4 7 -1 7 -16 -1 -12 -6 -24 -9 -28 -6 -3 3
0 6 7 6 9 0 9 3 -1 14 -7 7 -25 13 -40 12 -16 -1 -28 1 -28 6 0 4 5 8 10 8 6
0 10 4 10 9 0 5 -9 7 -20 4 -11 -3 -20 0 -20 6 0 6 -7 11 -16 11 -9 0 -12 5
-8 12 4 7 3 8 -4 4 -6 -4 -8 -14 -5 -24 9 -24 -3 -12 -22 23 -15 29 -16 29
-13 5 2 -18 -1 -24 -12 -21 -8 2 -21 4 -27 4 -7 0 -13 3 -13 7 0 4 -7 7 -15 8
-8 1 -22 3 -29 4 -8 1 -15 4 -14 7 2 19 -5 20 -32 6 -16 -8 -32 -15 -35 -15
-3 0 -7 -1 -10 -1 -3 -1 -9 -3 -15 -4 -5 -1 -12 -4 -15 -5 -13 -6 -31 -5 -42
2 -7 6 -14 4 -19 -3 -4 -7 -3 -9 3 -6 5 3 10 0 10 -8 0 -10 -4 -12 -12 -5 -7
5 -16 6 -20 2 -5 -4 -5 -2 -1 5 3 6 2 15 -4 18 -6 4 -9 1 -8 -5 2 -7 -5 -14
-15 -15 -22 -4 -36 -15 -19 -15 7 0 12 -5 12 -10 0 -6 -14 -8 -32 -6 -18 3
-27 3 -20 0 24 -11 12 -26 -15 -20 -16 3 -22 3 -15 0 7 -3 17 -15 23 -27 9
-18 9 -20 -2 -9 -16 14 -33 16 -24 2 5 -9 -16 -15 -38 -11 -5 1 -6 -3 -2 -9 3
-6 10 -8 15 -5 17 10 19 -13 3 -26 -12 -10 -14 -10 -9 -1 4 6 3 12 -3 12 -5 0
-13 -5 -16 -10 -4 -6 -11 -8 -16 -5 -5 4 -9 1 -9 -5 0 -7 7 -10 15 -7 8 4 17
2 20 -3 5 -9 -4 -13 -25 -12 -3 0 -12 -7 -20 -16 -13 -14 -12 -15 3 -9 9 3 19
1 23 -5 4 -7 3 -8 -5 -4 -8 5 -10 0 -7 -18 4 -23 -7 -40 -26 -41 -3 0 -10 -4
-15 -9 -5 -5 -3 -6 5 -2 7 4 12 2 12 -5 0 -7 8 -22 18 -33 l17 -20 -30 19
c-22 14 -27 15 -17 3 7 -9 9 -18 5 -20 -4 -3 -3 -3 4 -2 7 2 15 -1 18 -6 4 -6
-2 -10 -12 -11 -14 0 -15 -2 -3 -6 23 -9 30 -25 19 -45 -5 -10 -7 -18 -3 -18
3 0 0 -8 -7 -17 -11 -15 -11 -16 0 -6 14 12 41 7 41 -9 0 -5 -4 -7 -9 -3 -5 3
-13 0 -17 -7 -4 -7 -4 -10 1 -6 4 4 16 -2 26 -14 21 -23 23 -29 12 -27 -20 3
-24 -2 -13 -16 7 -8 18 -15 24 -15 6 0 4 5 -4 10 -12 7 -11 9 6 8 11 -1 21 -8
21 -15 0 -6 -4 -10 -9 -7 -20 12 -5 -9 24 -35 28 -25 31 -31 18 -45 -7 -10 -9
-16 -4 -15 23 4 33 -2 27 -18 -4 -11 -3 -14 5 -9 15 9 16 -6 1 -21 -13 -13 7
-13 29 1 7 4 12 4 11 -1 -4 -22 2 -43 11 -38 6 3 10 0 10 -7 0 -9 3 -9 10 2 5
8 10 10 10 5 0 -6 -6 -17 -12 -24 -10 -11 -10 -13 0 -7 8 5 12 -1 13 -16 1
-17 3 -18 6 -5 6 24 18 21 37 -8 9 -14 20 -23 25 -21 7 5 9 -1 13 -44 1 -11 8
-22 15 -24 9 -4 10 1 2 22 l-9 27 19 -24 c10 -14 16 -32 13 -40 -5 -13 -2 -13
12 1 21 22 33 24 16 3 -9 -11 -9 -15 -1 -15 7 0 9 -4 6 -10 -3 -5 -1 -10 5
-10 6 0 9 -4 6 -9 -4 -5 5 -8 19 -6 14 1 28 -2 32 -8 3 -6 1 -7 -5 -3 -7 4
-12 1 -12 -8 0 -10 6 -13 17 -9 10 4 14 2 10 -4 -8 -13 20 -26 35 -16 7 3 8 1
4 -5 -4 -7 -2 -12 3 -12 6 0 11 -5 11 -12 0 -9 -3 -9 -12 0 -15 15 -28 15 -28
1 0 -5 4 -8 8 -5 10 6 58 -45 54 -57 -1 -5 2 -5 9 -2 7 5 3 15 -11 30 -14 15
-18 25 -11 30 7 3 10 3 9 -2 -3 -10 36 -63 47 -63 3 0 3 5 0 10 -3 5 -1 10 4
10 12 0 10 -27 -3 -50 -5 -8 -6 -12 -1 -8 4 4 14 3 22 -4 7 -6 16 -8 20 -4 3
3 1 6 -6 6 -7 0 -9 5 -5 12 5 7 3 8 -6 3 -9 -5 -11 -4 -6 4 11 18 39 -8 33
-30 -4 -16 28 -58 39 -51 8 5 37 2 31 -4 -3 -3 8 -20 24 -37 18 -19 27 -37 24
-46 -5 -13 -4 -14 6 -4 20 20 31 15 23 -9 -6 -22 -6 -22 15 2 12 15 20 19 19
10 -2 -8 3 -14 10 -12 8 1 11 -2 8 -7 -4 -5 2 -14 11 -20 10 -6 14 -11 9 -11
-6 0 -20 9 -32 21 -21 19 -22 20 -19 3 1 -11 8 -18 14 -16 6 1 16 -9 21 -24 6
-14 14 -23 19 -19 6 3 14 -3 20 -12 6 -10 11 -13 11 -7 0 6 -3 14 -7 18 -4 3
-8 13 -9 22 -2 12 0 13 12 3 8 -6 12 -14 10 -17 -3 -2 0 -14 6 -26 7 -11 11
-24 10 -27 -1 -4 8 -4 20 -1 14 3 19 1 14 -6 -3 -6 3 -13 14 -17 11 -3 20 -11
20 -16 0 -6 -6 -7 -12 -3 -7 4 -9 3 -5 -1 12 -14 41 -15 49 -2 4 7 6 -3 3 -21
-2 -19 0 -30 6 -26 5 3 7 10 4 15 -3 5 1 6 10 3 14 -6 14 -8 0 -24 -13 -14
-13 -17 0 -17 8 0 12 4 9 9 -3 4 -1 8 5 8 5 0 13 -9 16 -20 3 -11 11 -20 16
-20 6 0 7 6 3 12 -5 9 -2 9 9 -1 18 -14 23 -26 8 -16 -5 3 -12 1 -16 -5 -3 -6
4 -10 17 -10 29 -1 64 -25 49 -35 -6 -3 -11 -12 -11 -18 0 -7 4 -6 10 3 6 10
10 11 10 3 0 -7 8 -13 19 -13 18 0 45 -22 37 -31 -2 -2 12 -19 31 -38 22 -23
31 -28 27 -15 -8 20 -6 20 16 -10 8 -11 10 -17 5 -14 -6 4 -17 3 -25 -2 -12
-7 -11 -9 5 -9 38 -1 54 -4 50 -11 -2 -4 3 -16 11 -28 13 -19 18 -20 37 -10
20 10 21 10 9 -5 -16 -19 -10 -33 21 -48 21 -9 20 -9 -2 11 -13 11 -21 24 -17
28 4 4 12 -1 17 -11 6 -9 15 -14 21 -11 6 4 8 3 5 -3 -8 -13 21 -53 39 -53 14
0 18 -11 14 -40 -1 -12 1 -11 12 2 10 13 17 15 28 7 13 -9 12 -10 -2 -5 -12 3
-18 0 -18 -9 0 -8 6 -14 13 -12 6 1 11 -4 10 -10 -2 -7 3 -12 10 -10 6 1 11
-4 9 -11 -1 -8 1 -11 6 -8 5 3 17 -1 28 -8 10 -8 23 -13 29 -12 5 2 7 1 3 -1
-15 -9 -8 -23 11 -23 11 0 27 -10 35 -21 9 -13 21 -19 30 -16 13 5 14 3 4 -12
-8 -13 -8 -23 0 -37 7 -11 12 -13 12 -6 0 7 5 10 12 6 7 -4 8 -3 4 4 -5 8 -2
10 9 6 12 -5 13 -9 4 -20 -7 -8 -9 -17 -5 -21 3 -3 6 -1 6 5 0 7 7 12 16 12
14 0 15 -2 3 -17 -8 -9 -9 -14 -3 -10 6 3 20 -1 30 -9 14 -12 15 -14 3 -11 -9
3 -16 -1 -16 -9 0 -12 4 -12 23 1 21 14 23 13 19 -6 -3 -16 0 -19 16 -14 20 7
24 -13 4 -27 -6 -5 -6 -8 2 -8 7 0 17 8 23 17 10 16 10 15 5 -4 -5 -18 -2 -21
20 -19 14 2 25 -1 25 -5 0 -5 -4 -9 -9 -9 -5 0 -12 -7 -15 -16 -5 -14 -4 -15
9 -4 10 8 15 9 15 1 0 -6 5 -11 11 -11 5 0 7 5 3 12 -4 6 -3 8 4 5 5 -4 8 -16
5 -27 -3 -12 0 -20 6 -20 7 0 10 4 6 9 -3 5 -1 13 5 16 6 4 9 1 8 -7 -2 -7 3
-12 11 -10 12 3 12 0 2 -12 -9 -11 -9 -16 0 -22 8 -4 9 -3 5 4 -4 7 -2 12 5
12 7 0 9 -8 6 -21 -4 -16 -3 -18 9 -8 13 11 19 2 15 -23 0 -5 4 -8 9 -8 6 0
10 5 10 10 0 6 4 10 10 10 5 0 9 -3 9 -7 -3 -21 2 -43 11 -43 5 0 7 8 3 18 -3
9 -2 14 2 9 5 -4 9 -17 10 -29 1 -12 8 -24 16 -26 11 -3 11 -1 -1 8 -13 10
-13 11 1 7 9 -3 22 -1 28 4 8 6 8 5 1 -3 -6 -7 -10 -19 -10 -28 0 -13 1 -13
10 0 8 13 10 12 11 -5 1 -11 1 -24 0 -28 -1 -5 3 -6 9 -2 5 3 10 2 10 -4 0 -5
11 -8 24 -7 19 2 23 -1 19 -18 -4 -17 -3 -18 6 -6 9 12 11 10 11 -10 1 -23 2
-24 14 -7 12 16 14 16 20 2 3 -9 11 -13 17 -10 6 4 5 -2 -3 -14 -10 -17 -10
-23 0 -33 11 -11 12 -10 7 3 -4 10 -1 20 6 25 8 4 10 3 5 -4 -7 -11 7 -17 29
-12 6 1 7 -2 3 -6 -11 -10 12 -35 25 -27 6 3 7 1 3 -5 -4 -6 -1 -20 6 -31 9
-15 16 -17 30 -10 11 6 18 6 18 0 0 -5 -6 -12 -12 -14 -7 -3 -4 -6 7 -6 11 -1
27 -6 35 -12 12 -8 9 -9 -10 -5 -14 3 -19 3 -12 0 6 -3 10 -9 8 -13 -3 -4 4
-8 15 -9 48 -4 49 -5 37 -19 -6 -7 -8 -16 -4 -20 3 -3 6 -2 6 4 0 6 7 14 16
17 14 5 15 4 4 -9 -10 -12 -10 -15 4 -15 9 0 16 -5 16 -11 0 -5 4 -8 9 -5 4 3
16 -3 26 -14 10 -11 22 -17 26 -14 5 3 6 -1 3 -9 -3 -8 0 -18 5 -22 6 -3 9
-10 6 -15 -3 -5 -1 -11 4 -14 11 -7 9 13 -3 32 -7 11 -4 11 13 0 19 -12 26
-28 22 -51 -1 -5 3 -6 9 -2 5 3 13 -1 16 -10 6 -14 7 -14 18 1 11 14 13 14 25
0 7 -9 17 -13 22 -10 5 3 9 2 8 -3 -3 -19 2 -33 12 -33 5 0 7 6 3 12 -4 7 2 5
13 -5 11 -9 22 -15 25 -12 2 3 5 -2 5 -10 0 -13 -2 -13 -16 -1 -12 11 -21 12
-31 5 -13 -9 -12 -10 2 -6 18 6 42 -15 30 -28 -4 -4 3 -2 16 4 18 10 22 9 22
-4 0 -8 4 -15 10 -15 5 0 7 8 4 18 -5 14 -4 14 4 2 8 -10 7 -18 0 -28 -6 -7
-7 -12 -2 -11 5 1 11 0 14 -1 3 -1 13 -3 22 -5 9 -2 32 -15 51 -29 23 -18 37
-22 44 -15 7 7 18 3 36 -15 14 -13 23 -27 21 -29 -2 -2 3 -4 13 -4 12 0 8 7
-13 25 l-29 25 30 -18 c17 -10 38 -27 48 -38 9 -11 17 -15 17 -9 0 6 -4 14
-10 17 -5 3 -10 12 -9 18 0 9 2 8 6 -1 2 -6 9 -10 14 -6 5 3 9 2 8 -3 -3 -20
2 -25 16 -13 19 16 20 6 0 -13 -13 -13 -13 -16 1 -21 8 -3 13 -2 11 2 -3 4 1
13 9 20 8 7 14 8 14 2 0 -5 5 -10 11 -10 7 0 18 -8 26 -17 14 -17 14 -17 9 0
-4 13 -2 16 7 10 12 -8 32 -13 54 -15 7 -1 10 -5 7 -10 -3 -4 -13 -4 -24 2
-21 11 -50 -13 -30 -25 6 -4 9 -1 8 7 -2 7 3 11 12 9 8 -2 23 -3 33 -3 9 0 15
-4 11 -9 -3 -6 3 -5 14 2 12 7 18 17 15 23 -3 5 -1 6 6 2 9 -6 9 -11 0 -22
-14 -17 -5 -18 22 -4 11 6 19 7 19 2 0 -6 9 -12 19 -15 15 -4 18 -1 14 12 -4
11 2 9 20 -8 15 -13 24 -29 20 -34 -4 -6 10 2 30 17 34 26 36 26 32 7 -2 -12
0 -21 6 -21 8 0 13 15 10 33 -1 4 8 3 19 -3 11 -6 20 -8 20 -4 0 3 6 2 13 -5
10 -8 17 -7 27 2 7 6 10 7 7 1 -4 -6 6 -17 21 -23 l27 -13 -20 22 -20 22 35
-19 c19 -11 42 -19 50 -18 8 1 20 3 27 3 7 1 10 10 7 19 -4 10 3 5 14 -10 15
-22 21 -25 25 -14 3 9 16 14 31 13 13 -2 30 0 37 5 8 4 18 4 24 -1 8 -6 12 -5
12 4 0 14 -26 14 -49 0 -6 -4 -8 -3 -4 4 3 5 0 12 -6 15 -7 2 5 3 27 2 22 -1
44 3 48 9 5 6 6 1 2 -11 -4 -15 -2 -21 9 -19 9 1 19 6 23 11 4 4 3 5 -3 2 -6
-3 -11 1 -11 9 0 10 4 11 11 4 13 -13 39 -13 31 -1 -6 10 41 5 58 -6 6 -3 7
-1 3 5 -5 8 0 12 14 12 11 0 23 6 26 14 7 18 32 28 47 19 7 -4 22 -8 34 -9 17
-1 20 2 12 12 -6 7 -6 14 -1 18 6 3 13 -1 16 -10 3 -8 11 -12 17 -9 7 5 4 14
-8 28 -9 12 -11 17 -4 10 7 -6 20 -9 29 -6 11 5 13 3 7 -8 -7 -11 -6 -12 7 -2
8 7 18 10 21 6 4 -3 9 1 13 10 5 13 10 14 26 6 11 -6 22 -8 26 -5 3 3 1 6 -5
6 -6 0 -14 7 -17 16 -6 15 -4 15 11 3 15 -12 16 -12 11 2 -4 9 -1 16 8 16 7 0
11 -4 8 -8 -2 -4 1 -11 7 -15 8 -4 9 -3 5 4 -4 7 -3 12 3 12 6 0 8 8 5 18 -3
9 1 6 9 -6 l14 -24 12 29 c7 17 20 29 32 30 12 1 17 -2 12 -10 -5 -9 -2 -8 9
0 8 7 18 9 22 5 4 -4 6 0 4 8 -2 8 -10 18 -18 22 -11 6 -10 7 5 7 35 -2 46 1
40 10 -3 5 0 13 6 17 8 4 9 3 5 -4 -4 -7 -1 -12 9 -12 10 0 13 -5 9 -12 -4 -7
-3 -8 5 -4 9 6 9 11 0 22 -15 18 11 20 30 1 11 -10 12 -8 3 9 -6 11 -7 26 -3
33 6 10 10 9 15 -4 5 -15 8 -15 36 2 17 9 28 23 26 30 -6 16 4 22 42 25 20 1
28 6 25 15 -7 19 7 16 24 -4 8 -10 11 -12 7 -4 -4 9 0 19 11 27 15 11 16 16 5
29 -7 9 -9 15 -4 14 22 -4 35 2 28 13 -5 7 -3 8 6 3 10 -6 9 -11 -5 -21 -16
-12 -16 -13 4 -11 11 1 21 7 21 14 0 7 5 12 11 10 6 -1 13 6 14 16 2 9 -1 15
-6 11 -5 -3 -6 -11 -3 -17 4 -8 2 -7 -7 1 -12 11 -12 14 1 22 11 7 19 4 29 -8
13 -16 13 -16 8 0 -4 10 -2 18 4 18 6 0 7 4 4 10 -3 5 0 7 8 4 8 -3 18 0 22 5
3 6 11 8 17 5 7 -4 8 -2 4 5 -6 9 -11 9 -22 0 -12 -10 -13 -9 -8 4 3 9 13 16
22 16 48 2 52 4 39 19 -10 13 -9 14 12 3 13 -7 21 -8 17 -3 -3 6 7 22 24 35
16 14 30 32 30 40 0 24 24 39 39 24 10 -9 11 -8 6 5 -5 12 -1 20 9 24 9 3 13
10 10 15 -3 5 7 4 23 -1 26 -9 27 -9 9 5 -15 11 -16 15 -5 15 22 0 62 57 46
64 -6 3 -1 3 12 0 19 -5 23 -3 18 9 -4 11 -2 14 8 10 8 -3 12 -10 8 -17 -3 -6
-2 -7 3 -3 5 5 10 13 10 18 1 5 2 12 3 15 0 4 8 0 18 -7 15 -13 15 -12 2 10
-11 18 -11 25 -1 28 6 3 10 9 7 14 -4 5 2 6 12 2 15 -6 16 -5 5 9 -11 14 -10
16 7 11 12 -3 18 -10 14 -16 -3 -6 -1 -7 6 -3 8 6 9 12 2 20 -11 13 -5 26 11
26 5 0 6 -5 2 -12 -4 -7 -3 -8 5 -4 9 6 9 11 -1 24 -11 13 -10 15 5 9 12 -5
16 -3 11 5 -5 8 -1 9 12 4 10 -4 15 -4 11 0 -9 9 13 35 24 28 5 -3 4 7 -1 22
-10 25 -9 26 6 13 15 -12 16 -12 10 9 -6 18 -4 21 11 15 15 -6 16 -4 5 9 -10
13 -9 15 12 13 19 -2 23 1 19 13 -5 11 -3 13 8 7 8 -4 11 -5 7 0 -11 11 12 36
25 28 5 -3 7 -1 3 5 -3 6 -1 14 5 17 5 4 8 13 5 20 -2 7 2 16 11 19 13 5 13 9
2 23 -12 14 -12 16 0 8 11 -6 13 -4 9 7 -4 8 -1 15 7 15 7 0 11 -7 8 -16 -4
-14 -3 -14 5 -1 7 9 8 18 1 26 -7 8 -6 15 2 20 8 4 9 3 5 -4 -4 -7 -2 -12 4
-12 7 0 10 6 7 13 -2 6 -11 11 -20 11 -9 -1 -14 2 -11 8 3 5 11 7 17 5 17 -5
35 15 29 32 -4 10 -1 13 11 8 11 -4 14 -2 10 8 -3 8 -10 12 -16 8 -6 -3 -7 -1
-3 6 6 8 12 9 20 2 9 -8 13 -7 14 2 1 6 3 23 5 37 3 25 26 73 27 55 0 -5 8 1
17 15 12 16 13 25 5 28 -8 2 -8 7 1 17 7 7 15 11 20 8 4 -2 7 -1 6 4 -3 20 2
34 11 28 6 -4 1 11 -11 32 -20 36 -20 37 -1 20 19 -17 20 -17 25 3 3 11 1 18
-4 14 -5 -3 -6 2 -3 10 3 8 14 13 25 11 11 -2 17 0 14 6 -4 5 -10 7 -15 4 -4
-3 -7 6 -6 20 0 14 4 25 8 25 4 0 5 9 3 20 -2 11 1 23 7 26 7 4 8 2 4 -4 -5
-8 -1 -10 9 -5 13 5 14 7 3 14 -11 8 -11 10 0 18 11 7 10 9 -3 14 -9 4 -13 3
-10 -2 3 -5 1 -12 -4 -15 -5 -4 -8 2 -6 11 1 10 9 18 17 17 8 -1 14 8 14 22 0
12 -3 21 -7 18 -4 -2 -11 1 -15 7 -4 8 -3 9 4 5 7 -4 12 -2 12 3 0 6 3 10 8 8
4 -1 8 3 10 8 1 6 -3 10 -10 10 -6 0 -13 6 -15 13 -6 15 2 15 30 1 l22 -12
-20 23 c-14 16 -15 22 -5 18 11 -4 15 2 16 19 2 21 1 22 -10 7 -10 -13 -15
-14 -20 -5 -5 7 -5 15 -2 18 3 4 6 0 7 -8 1 -16 17 19 18 40 1 11 -2 11 -16 0
-16 -12 -16 -12 -6 1 6 8 11 19 11 23 0 5 4 12 8 15 4 4 4 1 -1 -7 -5 -9 -4
-12 3 -7 6 4 9 12 7 19 -13 36 -13 68 -1 64 7 -3 13 1 13 9 0 7 -4 11 -9 8 -4
-3 -8 4 -8 16 0 14 4 19 13 14 9 -6 9 -4 1 7 -18 24 -26 51 -11 43 8 -5 7 -2
-2 9 -12 15 -11 17 3 17 9 0 16 5 16 11 0 5 -5 7 -12 3 -8 -5 -9 -2 -5 10 4
10 3 15 -3 11 -6 -4 -7 7 -4 27 4 18 7 38 8 43 0 6 6 14 11 18 6 5 4 7 -5 4
-8 -2 -15 -9 -15 -15 0 -5 -2 -13 -5 -16 -4 -3 -6 6 -6 19 0 15 6 25 15 25 10
0 8 7 -10 26 -23 26 -23 26 -2 15 19 -10 22 -9 17 4 -4 8 -9 15 -13 15 -3 0
-7 12 -7 26 -2 18 2 24 12 20 7 -3 16 -1 19 5 4 5 3 9 -2 8 -22 -4 -32 3 -30
21 1 11 5 20 9 20 4 0 8 5 8 12 0 9 -3 9 -12 0 -16 -16 -25 -15 -25 3 0 8 4
12 9 9 4 -3 8 0 8 5 0 6 -8 11 -17 12 -15 0 -15 2 2 9 11 5 14 9 6 9 -11 1
-11 4 0 18 8 9 9 14 4 11 -6 -4 -17 -3 -25 3 -12 7 -10 9 8 9 13 0 20 4 17 10
-4 6 -11 7 -17 4 -7 -5 -8 -2 -3 6 4 7 2 16 -6 22 -11 8 -10 9 3 4 10 -3 20
-1 23 4 4 6 -4 11 -17 11 -16 1 -18 3 -6 6 10 2 15 10 11 19 -3 7 -8 12 -12 9
-4 -2 -8 2 -8 10 0 8 3 12 6 10 4 -2 12 8 18 22 10 20 9 22 -1 13 -10 -8 -15
-7 -20 5 -3 9 -2 13 4 10 6 -3 10 -2 10 3 0 5 -9 12 -21 15 -18 5 -19 8 -7 26
7 12 18 19 25 17 7 -3 10 1 6 9 -3 8 -9 12 -14 9 -5 -3 -9 0 -9 6 0 6 -5 8
-12 4 -6 -4 -8 -3 -4 4 3 6 15 9 26 7 12 -2 18 0 15 6 -4 5 -11 7 -16 4 -5 -4
-9 -1 -9 5 0 6 -4 9 -9 5 -5 -3 -12 -1 -15 4 -3 4 4 8 16 7 13 -1 22 6 24 17
1 9 -2 15 -7 11 -5 -3 -6 -11 -2 -17 5 -8 2 -8 -9 0 -8 7 -19 9 -23 5 -5 -4
-5 -1 -1 6 4 7 12 10 17 7 5 -4 9 1 9 10 0 10 5 13 12 9 7 -4 8 -3 4 5 -6 9
-11 9 -21 1 -9 -8 -14 -6 -19 5 -3 9 -2 14 3 11 5 -3 12 1 15 10 9 24 7 28 -7
15 -11 -8 -13 -5 -9 18 2 16 -1 32 -8 36 -8 5 -7 12 5 25 13 15 14 23 5 39 -6
12 -16 18 -22 15 -7 -4 -8 -3 -4 5 4 6 11 9 16 6 18 -11 18 13 0 30 -13 12
-17 23 -11 34 5 9 6 22 3 30 -3 9 0 11 8 6 9 -5 11 -4 6 4 -4 6 -12 9 -17 6
-5 -4 -17 -1 -26 5 -15 10 -15 11 -1 6 24 -7 30 5 10 21 -9 8 -11 12 -4 8 6
-3 12 -1 12 4 0 6 -7 11 -16 11 -8 0 -12 5 -9 10 4 6 10 8 15 5 5 -3 7 4 5 16
-3 13 -10 26 -17 30 -10 7 -10 12 -1 28 11 17 10 19 -7 16 -11 -2 -20 0 -20 6
0 5 10 9 23 9 16 0 18 3 9 9 -8 4 -13 10 -11 12 1 2 -1 14 -5 26 -5 15 -13 20
-24 17 -14 -5 -15 -4 -2 5 13 9 13 11 0 11 -12 0 -12 2 -2 9 11 6 10 11 -3 25
-9 9 -11 16 -5 16 7 0 7 7 -1 23 -11 19 -10 20 3 10 12 -10 15 -10 15 2 0 8
-4 15 -9 15 -4 0 -8 5 -8 11 0 5 4 8 8 5 4 -2 8 4 8 14 0 10 -3 17 -7 14 -11
-6 -22 34 -13 47 4 7 3 9 -3 6 -6 -4 -17 1 -24 11 -13 15 -12 16 4 3 13 -10
17 -10 17 -1 0 9 4 9 18 -1 15 -12 16 -12 5 2 -7 9 -9 20 -5 25 4 4 -1 2 -10
-5 -20 -15 -25 -2 -6 17 16 16 -4 16 -21 0 -10 -10 -10 -8 0 10 8 12 20 20 27
17 8 -3 10 0 6 6 -4 6 -1 15 6 19 8 5 8 9 -4 13 -9 4 -15 1 -13 -5 1 -7 -7
-13 -18 -15 -18 -3 -18 -2 -2 5 10 4 18 11 18 15 -3 22 0 27 12 21 6 -4 3 3
-8 16 -11 13 -14 20 -6 15 10 -6 12 -2 6 15 -5 16 -4 20 5 15 9 -6 9 -3 1 14
-7 12 -8 20 -4 19 4 -2 8 2 8 7 0 6 -6 9 -15 8 -9 -2 -10 0 -2 3 6 3 10 10 7
14 -3 5 5 18 17 30 20 18 20 20 4 14 -13 -5 -17 -4 -13 3 4 6 1 14 -5 17 -7 4
-3 4 9 2 16 -3 20 0 16 12 -5 11 -2 13 8 8 8 -4 6 -1 -5 8 -10 8 -15 20 -11
26 4 6 1 19 -7 28 -12 15 -11 16 5 3 10 -8 15 -21 12 -30 -5 -12 -3 -13 5 -5
9 9 9 17 1 33 -7 12 -8 21 -4 21 4 0 1 5 -7 11 -13 9 -13 10 0 6 8 -2 15 -9
15 -15 0 -5 3 -14 7 -17 7 -7 2 38 -8 64 -4 12 -2 12 13 0 9 -8 14 -9 10 -2
-4 6 -3 14 3 18 15 10 12 23 -7 28 -17 4 -17 5 0 6 9 0 17 8 17 17 0 14 2 15
18 3 16 -13 16 -12 3 4 -14 17 -16 18 -27 2 -7 -9 -15 -12 -18 -7 -3 6 1 12 9
15 8 4 12 15 10 25 -3 16 1 19 18 15 20 -4 21 -3 5 10 -10 8 -15 17 -11 20 3
4 12 2 19 -4 8 -7 14 -6 20 2 4 7 3 9 -3 6 -6 -4 -13 0 -17 8 -3 9 0 15 10 15
8 0 12 5 9 10 -3 6 1 13 10 16 13 6 14 8 3 15 -7 5 -17 9 -23 9 -5 0 -4 -4 3
-9 11 -6 10 -10 -1 -19 -11 -9 -13 -7 -12 11 2 15 8 21 22 20 11 -1 20 4 20
12 0 8 -3 12 -7 10 -4 -2 -7 2 -7 9 0 8 7 12 15 9 12 -5 12 -2 2 18 -12 22
-12 23 4 10 15 -12 16 -12 9 5 -6 16 -4 17 8 7 13 -10 16 -10 16 2 0 8 -4 12
-8 9 -4 -2 -10 0 -14 6 -3 5 -1 10 5 10 7 0 9 9 6 23 -3 12 -3 16 0 10 11 -24
19 -13 18 21 -2 30 1 33 20 29 21 -5 21 -5 1 11 -11 10 -14 15 -8 11 7 -3 21
-1 30 5 17 10 17 10 -1 8 -10 -2 -21 2 -23 8 -2 7 6 10 22 9 14 -2 23 1 19 6
-3 5 -9 7 -14 4 -5 -3 -12 -1 -15 5 -4 6 -1 9 7 8 7 -2 12 5 12 15 -1 9 2 17
8 17 5 0 6 5 3 11 -7 11 23 51 34 45 3 -2 6 10 6 27 0 22 4 31 14 29 8 -2 11
3 8 12 -4 9 -1 18 5 22 6 4 8 3 4 -4 -3 -6 -2 -13 3 -16 13 -8 7 24 -6 32 -6
4 2 19 20 37 17 17 25 22 18 13 -19 -25 -5 -22 22 3 12 12 16 19 10 15 -18
-10 -33 2 -27 19 3 7 13 11 22 9 15 -5 15 -4 -1 9 -9 8 -17 18 -17 22 0 4 7 2
15 -5 11 -10 18 -9 30 3 9 10 11 18 5 22 -7 4 -7 12 0 25 7 13 6 20 -3 23 -6
2 -9 8 -5 12 4 4 14 2 23 -5 10 -8 15 -9 15 -1 0 6 -4 11 -10 11 -5 0 -10 7
-10 16 0 8 -4 13 -9 9 -5 -3 -12 -1 -15 4 -7 10 13 9 30 -1 6 -4 11 -1 11 7 0
8 -4 12 -9 9 -4 -3 -8 0 -8 6 0 6 -5 8 -12 4 -7 -5 -8 -3 -3 6 5 8 10 29 11
49 1 22 -1 29 -6 21 -5 -8 -6 -18 -3 -24 4 -5 -5 -1 -19 10 -15 10 -22 21 -17
22 5 2 9 8 9 13 0 6 -4 7 -10 4 -5 -3 -10 2 -10 12 0 11 -7 28 -16 39 -14 18
-15 18 -4 -4 6 -13 9 -28 6 -35 -2 -7 -5 -4 -5 6 -1 11 -6 15 -13 11 -6 -4 -8
-3 -4 4 3 6 0 17 -8 25 -8 8 -12 18 -8 22 4 4 -5 5 -20 3 -16 -3 -28 -1 -28 4
0 5 -5 6 -12 2 -7 -4 -8 -3 -4 4 4 6 12 10 19 8 7 -1 9 -1 4 1 -4 3 -5 8 -2
13 3 4 -3 7 -13 6 -10 0 -16 5 -14 13 3 12 1 12 -15 0 -10 -8 -22 -18 -26 -24
-5 -5 -6 0 -2 11 4 15 0 24 -10 28 -10 3 -13 11 -9 18 4 7 -1 6 -12 -3 -24
-20 -64 -22 -64 -4 0 23 -24 23 -38 1 -13 -21 -13 -20 -6 3 4 17 3 22 -7 18
-8 -2 -13 -10 -11 -17 2 -10 0 -11 -11 -2 -8 7 -17 9 -20 5 -4 -3 -7 -1 -7 6
0 8 6 11 16 7 8 -3 12 -2 9 4 -3 6 -1 10 6 10 7 0 10 2 8 5 -9 8 -79 -21 -72
-30 5 -5 0 -3 -9 4 -17 13 -23 8 -18 -14 1 -5 -7 -2 -17 6 -23 21 -54 20 -72
0 -7 -9 -6 -4 3 12 21 34 17 34 -24 -3 -18 -16 -38 -30 -43 -30 -5 0 2 9 17
21 14 11 26 26 25 32 0 8 -2 8 -6 -1 -2 -6 -10 -9 -15 -6 -6 4 -8 2 -5 -3 10
-17 -24 -25 -41 -11 -13 11 -14 11 -8 -1 7 -10 3 -12 -15 -6 -23 7 -23 6 -5
-7 15 -12 16 -17 6 -23 -19 -12 -61 -15 -54 -4 3 5 10 7 15 4 5 -4 17 -1 26 5
15 8 13 9 -12 6 -16 -2 -31 -5 -32 -6 -4 -3 -20 -7 -33 -9 -5 0 -10 -6 -10
-12 0 -8 4 -8 14 0 10 9 15 8 19 -2 5 -14 -19 -17 -40 -4 -6 4 -17 -1 -24 -10
-8 -10 -9 -14 -2 -10 6 4 15 2 19 -5 4 -7 3 -10 -1 -5 -5 4 -19 0 -31 -8 -15
-9 -25 -11 -29 -5 -4 6 -1 9 6 8 6 -2 14 4 16 12 4 12 3 12 -5 2 -5 -8 -13
-14 -18 -14 -5 1 -8 -7 -6 -16 2 -14 0 -14 -14 3 -15 18 -16 18 -10 1 4 -13 2
-17 -8 -13 -8 3 -13 -1 -12 -11 1 -12 -8 -18 -27 -20 -15 -2 -25 -8 -21 -13 3
-5 10 -6 16 -3 7 4 8 2 4 -5 -4 -6 -12 -9 -17 -6 -20 13 -49 -6 -49 -31 0 -15
-4 -23 -10 -19 -6 4 -8 10 -5 15 3 5 1 11 -3 14 -5 3 -8 -10 -7 -29 2 -19 -1
-32 -6 -29 -5 3 -6 10 -3 16 4 5 -5 2 -20 -7 -32 -21 -33 -28 -3 -20 l22 7
-22 -16 c-14 -10 -20 -23 -17 -34 5 -14 4 -14 -4 -2 -6 8 -8 19 -5 25 4 7 2 7
-5 0 -6 -6 -13 -22 -16 -35 -2 -14 -5 -27 -6 -30 -2 -3 -2 -9 -1 -13 1 -5 -3
-6 -9 -2 -6 3 -8 10 -5 15 3 4 -2 10 -10 13 -10 4 -12 1 -8 -10 5 -12 3 -14
-8 -8 -11 7 -11 5 1 -10 9 -11 10 -16 3 -11 -7 4 -13 3 -13 -1 0 -5 6 -15 13
-22 10 -10 8 -11 -7 -5 -13 5 -17 4 -12 -4 5 -8 1 -10 -11 -5 -10 3 -15 3 -11
-2 4 -4 3 -14 -3 -21 -6 -8 -8 -21 -5 -30 5 -14 4 -15 -9 -4 -12 10 -15 10
-15 -3 0 -8 5 -17 12 -19 7 -3 5 -7 -6 -11 -9 -4 -15 -3 -12 2 3 5 -1 12 -10
15 -23 9 -31 7 -14 -4 12 -8 13 -13 3 -29 -6 -10 -9 -22 -5 -25 3 -4 7 -15 9
-25 2 -15 -2 -18 -20 -14 -21 4 -21 3 3 -12 14 -9 17 -14 8 -11 -23 7 -50 -3
-42 -16 4 -6 9 -6 14 2 5 8 9 7 13 -5 4 -9 3 -14 -2 -11 -5 3 -15 -2 -22 -11
-8 -9 -9 -14 -3 -10 8 4 11 -2 10 -17 -1 -23 -2 -24 -20 -8 -18 16 -18 16 -5
-5 8 -13 17 -23 22 -23 4 0 5 -5 2 -10 -5 -8 -11 -7 -21 1 -10 8 -14 8 -14 0
0 -6 5 -11 11 -11 5 0 8 -4 5 -8 -3 -5 1 -20 8 -34 11 -20 11 -25 0 -25 -7 0
-12 3 -11 6 2 7 -8 11 -25 11 -8 0 -7 -4 3 -10 10 -6 15 -20 14 -35 -3 -22 5
-29 27 -26 3 0 5 -5 3 -12 -10 -40 -18 -56 -27 -51 -5 3 -2 14 7 24 15 16 15
18 0 24 -24 9 -32 7 -16 -3 8 -6 10 -14 5 -22 -11 -19 -14 -40 -4 -34 4 3 13
-2 20 -10 7 -8 9 -15 5 -15 -4 0 -2 -6 4 -14 9 -10 7 -17 -6 -27 -16 -13 -17
-12 -5 3 9 11 10 18 2 23 -6 3 -8 11 -5 16 4 5 1 9 -5 9 -7 0 -9 -8 -5 -21 4
-12 3 -19 -1 -16 -10 6 -10 -74 0 -98 3 -8 -3 -19 -12 -24 -14 -8 -14 -10 -2
-11 13 0 13 -2 1 -9 -8 -5 -11 -16 -8 -26 4 -9 3 -14 -2 -11 -5 3 -12 -1 -15
-10 -5 -12 -1 -14 16 -8 21 6 21 6 5 -10 -9 -10 -15 -21 -12 -26 3 -4 -2 -13
-10 -20 -8 -7 -12 -17 -8 -23 3 -6 1 -7 -6 -3 -6 4 -8 12 -5 18 4 7 2 8 -4 4
-9 -5 -9 -13 0 -29 10 -19 9 -20 -3 -10 -12 10 -15 8 -16 -8 -1 -11 2 -17 7
-14 5 3 12 1 15 -5 4 -6 3 -9 -2 -8 -10 3 -49 -23 -54 -37 -2 -5 -10 -9 -16
-7 -8 2 -10 -3 -7 -13 4 -11 2 -14 -9 -9 -12 4 -15 -1 -13 -20 3 -23 1 -24
-12 -14 -10 8 -13 8 -9 2 4 -7 0 -17 -8 -24 -8 -7 -12 -16 -9 -21 6 -10 -25
-1 -42 13 -7 5 -16 2 -24 -7 -10 -12 -16 -13 -29 -3 -14 12 -14 11 -2 -4 7
-10 18 -15 25 -11 6 4 5 -1 -3 -10 -13 -17 -15 -16 -36 3 -16 15 -22 17 -22 6
0 -8 4 -13 8 -11 4 3 9 -1 12 -9 4 -10 0 -12 -14 -9 -17 5 -23 15 -20 36 0 4
-4 7 -9 7 -6 0 -8 -11 -6 -24 3 -18 0 -23 -12 -21 -10 1 -16 8 -15 14 2 6 -4
11 -13 11 -8 0 -13 4 -10 8 3 5 -1 9 -9 9 -13 0 -13 -3 0 -17 13 -14 13 -17 0
-17 -8 0 -12 4 -9 9 5 7 -10 12 -28 9 -5 0 -8 4 -8 9 0 6 5 10 12 10 6 0 8 3
5 6 -4 4 -13 1 -21 -5 -12 -10 -17 -9 -27 7 -11 17 -14 18 -27 5 -13 -12 -16
-12 -31 1 -9 8 -20 14 -25 13 -5 -1 -15 9 -23 23 -14 22 -14 23 0 7 14 -17 15
-17 21 0 4 10 4 14 0 10 -4 -4 -13 -2 -20 3 -6 6 -16 10 -20 8 -5 -1 -19 4
-31 12 -16 10 -19 18 -12 26 7 8 6 15 -2 20 -8 4 -9 3 -5 -4 4 -7 4 -12 1 -12
-10 0 -30 23 -38 43 -3 9 -11 17 -17 17 -6 0 -8 6 -4 13 6 9 4 9 -8 -1 -14
-11 -17 -10 -23 7 -3 12 -13 21 -21 21 -8 0 -14 4 -14 10 0 5 6 8 13 6 6 -1 9
-1 5 1 -5 3 -8 12 -8 21 -1 15 -2 15 -11 -1 -11 -18 -29 -14 -29 6 0 7 4 6 10
-3 8 -12 9 -10 7 7 -2 12 -7 26 -12 30 -4 5 -5 2 -1 -4 4 -8 1 -13 -9 -13 -9
0 -13 5 -10 10 3 6 1 10 -4 10 -6 0 -10 3 -9 8 2 13 -14 42 -25 42 -5 0 -3 -8
6 -18 14 -15 15 -19 2 -19 -8 0 -12 4 -9 8 2 4 -4 12 -13 18 -17 9 -17 10 0
16 13 6 15 11 7 21 -7 7 -18 10 -26 7 -8 -3 -14 -2 -12 3 3 12 -25 54 -36 54
-5 0 -1 -9 9 -20 10 -11 15 -20 10 -20 -9 0 -31 26 -46 55 -10 19 -9 19 5 1
14 -17 15 -17 12 8 -1 14 -6 29 -11 34 -4 4 -5 1 -1 -5 5 -9 0 -13 -13 -13
-24 0 -36 16 -20 26 8 5 9 3 4 -6 -6 -9 -4 -11 4 -6 13 9 6 21 -12 21 -7 0
-11 12 -10 25 1 14 -1 19 -3 13 -8 -18 -31 -16 -38 3 -6 15 -4 15 10 3 16 -13
16 -12 4 8 -8 12 -18 19 -24 16 -5 -4 -7 1 -3 10 7 18 -26 43 -43 32 -5 -3
-12 0 -16 6 -4 7 -3 9 3 6 6 -4 13 -1 16 7 6 16 -23 17 -36 1 -5 -6 -7 -4 -4
5 2 8 11 14 18 12 9 -1 8 3 -3 11 -20 16 -25 32 -6 21 7 -4 8 -3 4 4 -4 6 -13
9 -21 5 -10 -3 -15 1 -15 15 0 12 -9 23 -20 27 -11 3 -20 13 -20 21 0 8 -5 14
-11 14 -8 0 -8 4 0 14 10 12 8 14 -11 9 -23 -4 -23 -4 -3 12 19 16 19 16 -9 9
-28 -7 -29 -6 -24 24 4 28 3 30 -15 20 -17 -9 -19 -8 -13 7 5 13 2 16 -11 11
-14 -6 -14 -4 3 15 10 12 14 19 8 16 -7 -4 -17 0 -24 8 -9 11 -9 15 -1 15 7 0
9 5 5 11 -4 8 -9 7 -15 -2 -4 -7 -6 -16 -3 -20 2 -4 -1 -11 -8 -15 -7 -4 -10
-3 -5 1 4 5 0 16 -9 26 -10 11 -12 19 -5 24 14 8 14 25 0 25 -5 0 -7 -5 -3
-12 5 -7 3 -8 -5 -4 -7 5 -10 15 -6 23 4 13 3 14 -10 3 -13 -11 -14 -10 -9 4
4 11 1 16 -10 16 -9 0 -16 4 -16 10 0 5 8 7 18 3 11 -3 9 0 -6 11 -12 10 -20
22 -17 27 4 5 -2 6 -12 2 -16 -6 -17 -5 -3 12 14 17 14 18 -7 7 -22 -12 -40
-1 -28 17 3 5 0 11 -7 14 -7 2 -2 2 12 0 19 -3 22 -1 10 7 -8 5 -24 10 -35 10
-19 1 -19 1 -2 14 12 9 14 16 8 21 -6 3 -11 2 -11 -3 0 -6 -7 -13 -16 -16 -15
-6 -15 -4 0 20 17 25 17 25 -3 15 -25 -14 -31 -14 -31 0 0 5 4 8 9 5 5 -3 11
1 14 9 4 10 1 12 -10 8 -11 -4 -14 -2 -9 5 8 13 -31 55 -44 47 -5 -3 -7 4 -5
15 3 14 -1 20 -14 20 -25 0 -32 10 -21 31 7 12 6 20 -2 25 -7 4 -8 3 -4 -4 4
-7 3 -12 -2 -12 -6 0 -12 7 -16 15 -3 8 0 15 6 15 6 0 8 3 5 6 -4 4 -13 1 -21
-5 -12 -10 -14 -9 -9 8 5 19 -5 26 -30 22 -5 -1 -6 3 -3 8 4 5 2 12 -3 16 -7
4 -7 15 -1 33 10 25 9 26 -5 8 -11 -15 -15 -16 -15 -5 0 8 5 20 10 27 7 8 7 9
-1 3 -12 -10 -49 -3 -49 10 0 5 8 6 18 2 13 -5 12 -1 -5 16 -24 23 -39 28 -27
9 4 -6 3 -8 -3 -5 -6 4 -8 18 -5 32 3 20 0 25 -17 25 -11 0 -21 5 -21 11 0 5
4 7 10 4 6 -3 7 1 4 10 -5 12 -9 13 -20 4 -12 -10 -13 -8 -8 6 6 14 4 16 -6
10 -10 -6 -12 -4 -7 8 4 11 -2 19 -21 26 -21 9 -22 10 -5 7 13 -2 26 0 29 5 3
5 0 8 -8 7 -7 -2 -12 5 -12 14 1 10 -4 14 -12 11 -8 -3 -11 -10 -8 -15 4 -6
-3 -5 -15 1 -22 12 -29 31 -10 31 5 0 7 -4 4 -10 -3 -5 -2 -10 4 -10 5 0 13 5
16 10 3 6 1 10 -5 10 -6 0 -8 5 -4 12 4 6 3 8 -4 5 -5 -4 -17 -4 -26 -1 -14 5
-14 9 -4 23 7 9 9 13 4 9 -5 -4 -15 0 -23 8 -8 8 -19 11 -25 8 -6 -4 -8 -2 -4
4 3 6 -1 18 -10 27 -9 9 -14 18 -11 21 3 3 13 -6 22 -20 10 -14 21 -26 27 -26
5 0 -1 10 -12 22 -12 13 -16 24 -10 26 5 2 10 8 10 14 0 7 -4 7 -13 0 -8 -7
-17 -6 -30 3 -12 8 -14 15 -7 20 18 11 1 26 -19 16 -13 -7 -18 -6 -18 4 0 8 4
12 8 9 4 -2 11 0 14 6 4 6 1 9 -7 8 -7 -2 -12 4 -10 12 2 11 -1 10 -12 -3 -9
-12 -16 -14 -21 -8 -3 6 -1 11 4 11 6 0 11 8 11 18 0 14 -2 15 -10 2 -7 -11
-10 -11 -10 -2 0 8 -5 10 -12 6 -10 -6 -10 -4 0 8 11 14 9 18 -15 27 l-28 11
30 -5 c29 -5 29 -4 -7 15 -21 11 -38 23 -38 26 0 3 3 3 8 1 4 -3 7 5 7 18 0
13 -4 21 -9 17 -5 -3 -6 2 -3 12 4 11 3 15 -4 11 -6 -4 -8 -13 -6 -19 3 -7 1
-19 -4 -27 -7 -12 -9 -12 -10 1 -1 8 -1 18 0 23 0 4 -5 7 -11 7 -9 0 -8 4 2
10 13 8 12 10 -2 10 -10 0 -18 5 -18 11 0 5 5 7 12 3 7 -4 2 7 -11 24 -12 18
-27 32 -32 32 -5 0 -1 -9 10 -21 17 -18 19 -49 4 -49 -3 0 -3 6 0 14 3 8 -3
22 -13 31 -11 10 -22 26 -25 36 -4 11 -10 17 -15 14 -5 -3 -12 0 -16 6 -4 7
-3 9 4 5 6 -3 13 -2 16 3 9 14 -31 20 -45 7 -8 -6 -5 -1 4 11 16 18 16 23 4
30 -7 4 -19 17 -26 28 l-13 20 6 -20 c6 -19 6 -19 -9 -1 -8 10 -12 23 -8 28 3
6 -5 5 -17 -2 -12 -7 -20 -8 -16 -2 3 5 -1 12 -9 16 -8 3 -12 12 -9 20 3 9 -4
21 -20 31 -16 11 -23 23 -19 33 4 13 3 14 -5 3 -6 -8 -15 -10 -22 -6 -8 5 -11
4 -7 -2 3 -5 0 -10 -8 -10 -11 0 -12 5 -4 20 10 17 8 18 -13 12 -20 -7 -21 -6
-10 8 10 12 10 17 1 23 -7 4 -9 3 -6 -3 4 -6 0 -13 -8 -16 -10 -4 -12 -1 -8
10 5 13 1 15 -20 11 -15 -3 -25 -1 -24 6 1 5 -3 10 -10 11 -7 0 -19 9 -28 20
-9 11 -14 14 -10 8 3 -7 1 -13 -4 -13 -6 0 -11 7 -11 16 0 8 -4 13 -9 9 -6 -3
-14 3 -20 12 -10 17 -10 17 -11 0 0 -10 -5 -15 -10 -12 -6 4 -7 11 -4 17 4 6
-3 5 -16 -2 -17 -9 -25 -9 -34 1 -8 9 -8 10 1 5 12 -7 29 11 19 21 -3 4 -6 0
-6 -7z m-110 -20 c0 -5 -5 -10 -11 -10 -5 0 -7 5 -4 10 3 6 8 10 11 10 2 0 4
-4 4 -10z m398 -165 c-3 -3 -9 2 -12 12 -6 14 -5 15 5 6 7 -7 10 -15 7 -18z
m137 -123 c-3 -3 -11 0 -18 7 -9 10 -8 11 6 5 10 -3 15 -9 12 -12z m-835 -52
c0 -5 -5 -10 -11 -10 -5 0 -7 5 -4 10 3 6 8 10 11 10 2 0 4 -4 4 -10z m-815
-10 c-3 -5 -12 -10 -18 -10 -7 0 -6 4 3 10 19 12 23 12 15 0z m300 -101 c11
-16 1 -19 -13 -3 -7 8 -8 14 -3 14 5 0 13 -5 16 -11z m32 -34 c0 -8 -4 -12 -9
-9 -4 3 -8 9 -8 15 0 5 4 9 8 9 5 0 9 -7 9 -15z m-662 -45 c3 -5 -1 -10 -10
-10 -9 0 -13 5 -10 10 3 6 8 10 10 10 2 0 7 -4 10 -10z m855 -125 c7 -9 8 -15
2 -15 -5 0 -12 7 -16 15 -3 8 -4 15 -2 15 2 0 9 -7 16 -15z m57 -87 c-3 -7 -5
-2 -5 12 0 14 2 19 5 13 2 -7 2 -19 0 -25z m428 -97 c3 -5 2 -12 -3 -15 -5 -3
-9 1 -9 9 0 17 3 19 12 6z m-325 -15 c0 -3 -4 -8 -10 -11 -5 -3 -10 -1 -10 4
0 6 5 11 10 11 6 0 10 -2 10 -4z m334 -32 c3 -8 2 -12 -4 -9 -6 3 -10 10 -10
16 0 14 7 11 14 -7z m4036 -235 c0 -5 -4 -9 -10 -9 -5 0 -10 7 -10 16 0 8 5
12 10 9 6 -3 10 -10 10 -16z m55 -19 c3 -5 1 -10 -4 -10 -6 0 -11 5 -11 10 0
6 2 10 4 10 3 0 8 -4 11 -10z m-5212 -134 c3 3 4 -1 3 -10 -1 -8 -5 -18 -9
-21 -4 -3 -5 -2 -2 2 3 3 -3 16 -12 27 -14 15 -14 18 -2 8 9 -6 18 -9 22 -6z
m4431 -7 c-3 -5 -10 -7 -15 -3 -5 3 -7 10 -3 15 3 5 10 7 15 3 5 -3 7 -10 3
-15z m-1920 -31 c-3 -4 -11 -8 -17 -7 -9 0 -9 2 0 5 7 3 9 13 6 22 -4 14 -3
14 5 2 6 -8 8 -18 6 -22z m-1323 -41 c-10 -9 -11 -8 -5 6 3 10 9 15 12 12 3
-3 0 -11 -7 -18z m82 -82 c-3 -9 -8 -14 -10 -11 -3 3 -2 9 2 15 9 16 15 13 8
-4z m4104 -35 c2 -11 -1 -20 -5 -20 -4 0 -8 11 -8 25 0 28 8 24 13 -5z m-2740
-17 c0 -9 -4 -10 -14 -2 -7 6 -13 12 -13 14 0 1 6 2 13 2 8 0 14 -6 14 -14z
m-2437 3 c0 -2 -7 -7 -16 -10 -8 -3 -12 -2 -9 4 6 10 25 14 25 6z m-513 -88
c-3 -8 -6 -5 -6 6 -1 11 2 17 5 13 3 -3 4 -12 1 -19z m57 11 c3 -3 -5 -5 -19
-5 -13 0 -22 3 -19 7 4 8 30 6 38 -2z m496 1 c0 -5 -2 -10 -4 -10 -3 0 -8 5
-11 10 -3 6 -1 10 4 10 6 0 11 -4 11 -10z m-365 -40 c3 -5 2 -10 -4 -10 -5 0
-13 5 -16 10 -3 6 -2 10 4 10 5 0 13 -4 16 -10z m4305 -4 c0 -2 -7 -7 -16 -10
-8 -3 -12 -2 -9 4 6 10 25 14 25 6z m-1425 -16 c3 -5 1 -10 -4 -10 -6 0 -11 5
-11 10 0 6 2 10 4 10 3 0 8 -4 11 -10z m-1308 -16 c-3 -3 -12 -4 -19 -1 -8 3
-5 6 6 6 11 1 17 -2 13 -5z m310 -59 c0 -8 -4 -12 -9 -9 -5 3 -6 10 -3 15 9
13 12 11 12 -6z m-2377 -65 c0 -5 -2 -10 -4 -10 -3 0 -8 5 -11 10 -3 6 -1 10
4 10 6 0 11 -4 11 -10z m2199 -19 c10 -7 7 -9 -12 -8 -14 1 -23 5 -20 10 6 9
15 9 32 -2z m-2219 -21 c0 -5 -5 -10 -11 -10 -5 0 -7 5 -4 10 3 6 8 10 11 10
2 0 4 -4 4 -10z m3525 -8 c-3 -3 -11 0 -18 7 -9 10 -8 11 6 5 10 -3 15 -9 12
-12z m-1255 -18 c0 -2 -7 -4 -15 -4 -8 0 -15 4 -15 10 0 5 7 7 15 4 8 -4 15
-8 15 -10z m-2276 -65 c-3 -5 -10 -7 -15 -3 -5 3 -7 10 -3 15 3 5 10 7 15 3 5
-3 7 -10 3 -15z m4758 -6 c-6 -2 -9 -10 -6 -15 4 -7 2 -8 -5 -4 -13 9 -5 26
12 25 9 0 8 -2 -1 -6z m-1112 -28 c0 -1 -6 -7 -13 -13 -10 -8 -13 -6 -13 7 0
11 6 17 13 14 7 -3 13 -6 13 -8z m-3640 -49 c0 -2 -8 -10 -17 -17 -16 -13 -17
-12 -4 4 13 16 21 21 21 13z m4750 -140 c0 -2 -7 -7 -16 -10 -8 -3 -12 -2 -9
4 6 10 25 14 25 6z m-4730 -26 c8 -5 11 -10 5 -10 -5 0 -17 5 -25 10 -8 5 -10
10 -5 10 6 0 17 -5 25 -10z m3810 -19 c0 -5 -7 -12 -16 -15 -14 -5 -15 -4 -4
9 14 17 20 19 20 6z m-976 -143 c-3 -4 -11 -5 -19 -1 -21 7 -19 12 4 10 11 0
18 -5 15 -9z m-2683 -73 c3 3 6 -2 6 -10 0 -23 -23 3 -31 35 -5 23 -5 23 7 -3
7 -15 16 -25 18 -22z m2708 31 c9 -11 9 -16 -1 -22 -7 -4 -10 -4 -6 1 4 4 0
14 -10 21 -9 7 -12 14 -6 14 6 0 17 -6 23 -14z m38 -11 c0 -8 -4 -12 -9 -9 -5
3 -6 10 -3 15 9 13 12 11 12 -6z m-1538 -42 c-7 -7 -15 -11 -18 -7 -3 4 0 9 7
11 10 4 10 8 0 21 -12 15 -11 16 5 3 13 -11 15 -17 6 -28z m2628 31 c-3 -3
-12 -4 -19 -1 -8 3 -5 6 6 6 11 1 17 -2 13 -5z m-2396 -27 c-10 -9 -11 -8 -5
6 3 10 9 15 12 12 3 -3 0 -11 -7 -18z m-1383 -30 c-1 -2 3 -11 10 -20 9 -10
10 -17 2 -22 -6 -4 -10 -3 -9 2 1 4 0 10 -1 13 -5 14 -8 41 -3 37 2 -3 3 -7 1
-10z m2592 -52 c-7 -9 -15 -13 -19 -10 -3 3 1 10 9 15 21 14 24 12 10 -5z
m1406 -57 c4 -7 3 -8 -4 -4 -7 4 -12 2 -12 -5 0 -7 -3 -10 -6 -6 -6 5 3 27 11
27 2 0 7 -5 11 -12z m264 -21 c0 -4 -6 -2 -14 5 -8 7 -12 17 -9 22 5 8 23 -12
23 -27z m1107 -42 c0 -8 -4 -12 -9 -9 -5 3 -6 10 -3 15 9 13 12 11 12 -6z
m-3931 -86 c3 -6 1 -16 -5 -22 -9 -9 -10 -7 -5 7 5 13 4 17 -4 12 -7 -4 -12
-2 -12 3 0 14 17 14 26 0z m114 -114 c0 -12 -19 -12 -23 0 -4 9 -1 12 9 8 7
-3 14 -7 14 -8z m3811 -38 c-10 -9 -11 -8 -5 6 3 10 9 15 12 12 3 -3 0 -11 -7
-18z m29 -28 c0 -5 -4 -9 -8 -9 -5 0 -9 7 -9 15 0 8 4 12 9 9 4 -3 8 -9 8 -15z
m-3700 -109 c0 -5 -5 -10 -11 -10 -5 0 -7 5 -4 10 3 6 8 10 11 10 2 0 4 -4 4
-10z m47 -52 c-3 -8 -6 -5 -6 6 -1 11 2 17 5 13 3 -3 4 -12 1 -19z m3686 -13
c4 -8 3 -16 -1 -19 -4 -3 -9 4 -9 15 -2 23 3 25 10 4z m-4753 -70 c0 -7 -30
-13 -34 -7 -3 4 4 9 15 9 10 1 19 0 19 -2z m24 -57 c-3 -4 0 -8 5 -8 6 0 11
-5 11 -11 0 -8 -5 -8 -15 1 -8 7 -13 16 -10 20 3 4 -2 10 -10 14 -8 3 -15 10
-15 16 0 5 9 2 19 -7 11 -9 18 -20 15 -25z m-428 -48 c0 -12 -4 -16 -9 -11 -5
5 -6 14 -3 20 10 15 12 14 12 -9z m509 -10 c3 -6 -1 -7 -9 -4 -18 7 -21 14 -7
14 6 0 13 -4 16 -10z m1362 -17 c-4 -3 1 -11 10 -18 9 -7 18 -20 19 -29 2 -14
0 -15 -12 -5 -7 6 -12 15 -9 19 3 4 -2 11 -11 14 -14 5 -11 26 3 26 4 0 3 -3
0 -7z m3320 -45 c-3 -8 -6 -5 -6 6 -1 11 2 17 5 13 3 -3 4 -12 1 -19z m27 -56
c2 -4 -4 -8 -14 -8 -10 0 -16 4 -14 8 3 4 9 8 14 8 5 0 11 -4 14 -8z m-3314
-22 c0 -5 -2 -10 -4 -10 -3 0 -8 5 -11 10 -3 6 -1 10 4 10 6 0 11 -4 11 -10z
m3320 -40 c0 -5 -5 -10 -11 -10 -5 0 -7 5 -4 10 3 6 8 10 11 10 2 0 4 -4 4
-10z m-4524 -39 c8 7 14 7 14 1 0 -12 -26 -23 -34 -15 -3 4 -5 13 -5 22 1 12
2 12 6 -2 4 -14 8 -16 19 -6z m-1066 -75 c0 -3 -4 -8 -10 -11 -5 -3 -10 -1
-10 4 0 6 5 11 10 11 6 0 10 -2 10 -4z m1310 -166 c0 -4 -7 -11 -16 -14 -13
-5 -14 -4 -6 7 7 8 8 18 4 22 -4 5 -1 5 6 1 6 -4 12 -11 12 -16z m-195 -31
c11 -16 1 -19 -13 -3 -7 8 -8 14 -3 14 5 0 13 -5 16 -11z m229 -204 c-4 -8 -8
-15 -10 -15 -2 0 -4 7 -4 15 0 8 4 15 10 15 5 0 7 -7 4 -15z m271 -65 c3 -6
-1 -7 -9 -4 -18 7 -21 14 -7 14 6 0 13 -4 16 -10z m45 -46 c0 -8 -19 -13 -24
-6 -3 5 1 9 9 9 8 0 15 -2 15 -3z m3985 -3 c3 -5 0 -13 -6 -17 -7 -4 -9 -3 -5
4 3 5 0 13 -6 15 -9 4 -10 6 -1 6 6 1 14 -3 18 -8z m0 -100 c3 -5 2 -12 -3
-15 -5 -3 -9 1 -9 9 0 17 3 19 12 6z m-5243 -8 c-6 -2 -9 -10 -6 -15 4 -7 2
-8 -5 -4 -13 9 -5 26 12 25 9 0 8 -2 -1 -6z m1385 -32 c0 -11 -5 -18 -9 -15
-4 3 -5 11 -1 19 7 21 12 19 10 -4z m-111 -48 c-10 -11 -19 -7 -22 10 -2 15 0
16 12 6 8 -6 12 -14 10 -16z m174 -103 c0 -5 -2 -10 -4 -10 -3 0 -8 5 -11 10
-3 6 -1 10 4 10 6 0 11 -4 11 -10z m-1217 -50 c-4 -15 -2 -19 10 -14 8 3 17 1
21 -4 6 -10 -24 -9 -42 2 -10 6 -10 11 -1 22 16 19 18 18 12 -6z m112 -108
c-3 -3 -11 0 -18 7 -9 10 -8 11 6 5 10 -3 15 -9 12 -12z m160 -141 c-6 -5 -25
10 -25 20 0 5 6 4 14 -3 8 -7 12 -15 11 -17z m4682 -223 c-3 -8 -6 -5 -6 6 -1
11 2 17 5 13 3 -3 4 -12 1 -19z m-23 -97 c3 -5 -2 -15 -12 -22 -15 -12 -16
-12 -5 2 7 9 10 19 6 22 -3 4 -4 7 0 7 3 0 8 -4 11 -9z m-4238 -60 c0 -11 -4
-17 -8 -15 -4 3 -8 12 -8 20 0 8 4 14 8 14 4 0 8 -9 8 -19z m101 -86 c0 -8 -4
-12 -9 -9 -4 3 -8 9 -8 15 0 5 4 9 8 9 5 0 9 -7 9 -15z m88 -75 c-3 -5 -1 -10
6 -10 7 0 10 -3 6 -6 -9 -9 -28 6 -22 17 4 5 8 9 11 9 3 0 2 -4 -1 -10z m163
-154 c-7 -8 -15 -12 -17 -11 -5 6 10 25 20 25 5 0 4 -6 -3 -14z m3672 -51
c-13 -14 -28 -25 -34 -24 -6 0 -5 3 2 6 6 2 9 10 6 15 -4 7 -2 8 4 4 10 -6 35
25 28 36 -1 3 2 2 7 -3 7 -6 3 -17 -13 -34z m-100 -129 c0 -2 -6 -9 -14 -15
-11 -9 -16 -9 -22 0 -4 8 -3 9 4 5 7 -4 12 -2 12 3 0 6 5 11 10 11 6 0 10 -2
10 -4z m-149 -159 c-10 -9 -11 -8 -5 6 3 10 9 15 12 12 3 -3 0 -11 -7 -18z
m-2970 -54 c13 -15 12 -15 -8 -4 -24 12 -29 21 -14 21 5 0 15 -7 22 -17z
m2734 -173 c-18 -20 -35 -18 -35 3 0 8 3 7 9 -2 7 -11 11 -10 22 7 7 12 15 19
18 17 2 -3 -4 -14 -14 -25z m-2535 14 c0 -8 -19 -13 -24 -6 -3 5 1 9 9 9 8 0
15 -2 15 -3z m2293 -205 c-8 -8 -13 -7 -18 2 -5 8 -4 10 3 5 7 -4 12 -2 12 5
0 7 3 9 7 6 4 -4 2 -12 -4 -18z m-2021 -16 c-10 -4 -10 -8 0 -21 12 -15 11
-16 -4 -3 -19 14 -15 32 5 30 8 0 8 -2 -1 -6z m1908 -51 c0 -4 -9 -13 -20 -20
-19 -12 -20 -11 -8 8 13 20 28 27 28 12z m-1656 -128 c3 -8 2 -12 -4 -9 -6 3
-10 10 -10 16 0 14 7 11 14 -7z m30 -20 c3 -8 2 -12 -4 -9 -6 3 -10 10 -10 16
0 14 7 11 14 -7z m1160 -80 c3 -8 2 -12 -4 -9 -6 3 -10 10 -10 16 0 14 7 11
14 -7z m-89 -24 c3 -6 -1 -7 -9 -4 -18 7 -21 14 -7 14 6 0 13 -4 16 -10z
m-575 -45 c-12 -15 -30 -12 -30 5 0 5 7 7 15 4 8 -4 15 -1 15 7 0 7 3 9 6 6 4
-4 1 -13 -6 -22z m250 -17 c0 -15 -15 -8 -28 12 -12 19 -11 20 8 8 11 -7 20
-16 20 -20z m-39 5 c13 -16 12 -17 -3 -4 -17 13 -22 21 -14 21 2 0 10 -8 17
-17z m119 6 c0 -6 -4 -8 -9 -4 -5 3 -12 1 -16 -5 -4 -6 -11 -8 -16 -4 -5 3 -7
9 -5 13 7 11 46 11 46 0z"/>
<path d="M3015 6561 c-3 -5 -2 -12 3 -15 5 -3 9 1 9 9 0 17 -3 19 -12 6z"/>
<path d="M4356 6562 c-3 -5 1 -9 9 -9 8 0 12 4 9 9 -3 4 -7 8 -9 8 -2 0 -6 -4
-9 -8z"/>
<path d="M3865 6530 c6 -10 4 -12 -8 -7 -9 3 -19 1 -23 -5 -4 -7 -9 -6 -15 3
-6 10 -8 8 -6 -8 2 -12 6 -25 9 -29 10 -9 -3 -34 -17 -34 -7 0 -15 -6 -18 -14
-4 -9 1 -13 11 -11 9 1 11 0 4 -2 -7 -3 -9 -9 -6 -15 4 -5 -4 -4 -17 3 -21 10
-22 10 -12 -2 16 -20 17 -31 1 -40 -10 -7 -10 -9 0 -9 7 0 10 -5 6 -12 -4 -6
-3 -8 4 -4 5 3 23 -5 39 -18 15 -13 36 -22 45 -20 10 1 21 -2 24 -7 3 -6 12
-5 22 3 14 10 15 10 5 -2 -17 -19 -16 -30 3 -30 11 0 14 -6 9 -22 -7 -22 -7
-22 8 -3 14 18 15 18 12 -7 -2 -20 1 -25 15 -21 10 3 21 -1 25 -8 6 -8 4 -10
-6 -4 -11 6 -12 5 -2 -5 10 -11 15 -11 29 1 15 12 15 10 -1 -16 -10 -16 -12
-24 -5 -17 21 18 35 15 19 -5 -8 -9 -9 -14 -2 -10 14 9 45 -2 37 -14 -3 -5 0
-9 7 -9 7 0 9 -8 6 -21 -4 -17 -3 -19 6 -10 18 18 25 13 22 -14 -1 -14 0 -23
3 -20 3 2 11 0 19 -6 7 -6 13 -8 13 -5 0 4 9 2 21 -4 11 -7 18 -14 15 -17 -3
-4 0 -13 7 -22 11 -14 10 -15 -7 -1 -18 14 -18 14 -6 -7 8 -12 18 -19 22 -17
8 5 12 -11 9 -30 -1 -5 4 -4 13 3 11 9 16 9 22 0 4 -8 3 -9 -4 -5 -10 6 -11
-9 -3 -42 1 -1 10 2 21 8 11 6 20 7 20 1 0 -5 -8 -12 -17 -16 -17 -6 -17 -7 0
-16 9 -6 15 -15 11 -21 -4 -5 4 -4 17 3 23 11 23 11 9 -6 -14 -17 -13 -17 10
-10 24 7 24 7 5 -9 -11 -8 -15 -16 -8 -16 6 0 15 -9 18 -20 3 -11 11 -20 16
-20 6 0 8 4 5 8 -3 5 1 9 8 9 8 0 13 -7 11 -16 -1 -9 -10 -15 -21 -14 -15 2
-15 1 4 -9 12 -6 22 -18 22 -27 0 -9 7 -25 15 -35 8 -11 13 -29 10 -40 -5 -18
-4 -17 8 3 12 20 15 21 20 7 4 -10 3 -15 -3 -11 -6 3 -10 1 -10 -4 0 -6 7 -11
15 -11 15 0 19 -11 16 -39 -2 -8 2 -10 11 -5 10 6 11 5 1 -7 -18 -23 -19 -25
-5 -42 8 -9 20 -13 28 -10 20 7 18 -7 -3 -23 -17 -12 -16 -13 5 -9 12 2 20 0
17 -6 -4 -5 -2 -9 2 -9 5 0 14 -9 20 -20 11 -17 10 -19 -5 -14 -12 4 -11 1 5
-11 21 -16 22 -51 0 -38 -6 3 -7 1 -3 -5 4 -6 14 -9 24 -6 15 5 15 4 -1 -9
-16 -13 -16 -15 -2 -21 9 -3 13 -2 10 4 -3 6 -1 10 5 10 7 0 10 -6 7 -12 -2
-7 -11 -12 -20 -12 -9 1 -14 -3 -11 -8 3 -5 13 -7 21 -4 11 4 13 2 9 -9 -3 -8
4 -24 17 -36 15 -16 17 -20 5 -16 -14 5 -17 -8 -8 -33 1 -3 2 -8 1 -12 0 -4 6
-5 13 -2 8 3 12 12 10 19 -3 7 -1 15 4 19 10 6 9 -30 -1 -41 -4 -4 3 -13 15
-21 19 -11 20 -12 3 -8 -20 6 -20 6 0 -9 18 -14 20 -14 26 2 5 14 7 13 12 -8
6 -21 9 -22 20 -9 15 18 37 24 37 10 0 -6 5 -10 11 -10 5 0 7 6 3 13 -5 7 0 6
11 -3 11 -9 16 -10 11 -2 -11 18 5 14 20 -5 13 -17 14 -17 7 1 -5 15 -3 18 10
13 10 -4 17 -2 17 5 0 6 7 5 18 -3 15 -13 16 -12 3 3 -7 10 -17 16 -21 13 -11
-7 -6 22 5 32 4 4 5 2 1 -4 -5 -9 -2 -11 9 -7 14 6 13 8 -4 20 -12 9 -18 23
-16 39 1 14 -1 28 -6 31 -4 2 -5 12 -2 21 6 15 5 16 -9 3 -15 -13 -15 -16 -2
-27 9 -6 11 -14 6 -17 -6 -3 -13 2 -17 12 -12 26 -14 43 -6 38 6 -4 7 29 1 44
-1 3 -2 9 -1 13 1 5 -3 6 -9 2 -8 -5 -8 -11 0 -20 8 -10 8 -15 -2 -21 -7 -4
-10 -4 -6 1 4 4 3 14 -3 22 -6 7 -8 13 -4 13 5 0 0 9 -9 19 -17 19 -17 19 3
14 12 -3 21 -1 21 6 0 6 -6 10 -12 8 -7 -1 -12 4 -11 11 2 6 -1 12 -6 12 -5 0
-12 -6 -15 -12 -3 -7 -3 -2 0 11 5 18 3 22 -7 16 -8 -5 -6 1 5 13 17 20 17 22
2 28 -9 3 -16 15 -16 25 0 10 -4 19 -10 19 -13 0 -1 -32 18 -47 14 -12 14 -13
0 -13 -9 0 -20 10 -24 23 -4 12 -12 25 -18 29 -8 6 -7 8 2 8 6 0 12 5 12 11 0
5 -6 7 -12 3 -8 -5 -7 0 2 11 14 17 13 17 -10 12 -14 -4 -19 -4 -12 -1 6 3 12
12 12 20 0 9 5 12 12 8 6 -4 8 -3 5 4 -4 5 -18 9 -32 8 -13 -2 -22 0 -20 5 3
4 1 10 -5 14 -7 4 -7 12 0 26 9 15 7 19 -5 19 -8 0 -15 5 -15 11 0 5 4 8 8 5
4 -2 14 0 22 5 10 6 2 7 -25 4 -35 -4 -37 -3 -17 7 12 6 22 16 22 22 0 6 -5 5
-12 -2 -9 -9 -17 -1 -35 34 -13 25 -23 52 -23 60 0 8 -3 14 -7 15 -45 4 -61
14 -38 23 11 4 14 2 9 -7 -5 -8 -2 -7 9 2 18 14 22 22 10 20 -5 -1 -16 -1 -27
0 -15 1 -16 4 -6 16 7 9 10 18 6 22 -3 3 -6 1 -6 -5 0 -15 -27 -15 -36 0 -5 7
-2 9 9 5 11 -4 15 0 14 13 -1 13 -5 16 -11 10 -17 -17 -29 -11 -15 7 12 15 12
16 -4 10 -11 -4 -16 -3 -12 4 4 5 -4 19 -16 30 -18 15 -20 22 -10 28 10 7 10
9 -2 14 -8 3 -19 1 -24 -4 -7 -7 -12 -5 -17 6 -3 9 -2 14 2 11 4 -2 7 7 7 20
0 27 -15 33 -16 7 0 -11 -3 -13 -6 -5 -2 6 -8 10 -12 8 -4 -3 -7 8 -6 22 0 19
-7 30 -23 37 -12 5 -25 18 -28 27 -3 10 -12 18 -20 18 -8 0 -12 -4 -9 -10 3
-5 2 -10 -4 -10 -5 0 -9 9 -8 19 0 11 5 17 9 15 4 -3 8 0 8 5 0 15 -13 14 -29
-1 -10 -9 -12 -9 -7 -1 3 6 1 15 -5 18 -5 4 -8 14 -5 22 3 8 1 11 -4 8 -6 -3
-10 -1 -10 5 0 6 -11 8 -25 6 -24 -5 -40 5 -28 18 3 3 12 1 20 -5 9 -9 13 -8
13 0 0 6 -5 11 -11 11 -5 0 -7 5 -3 11 4 8 1 8 -12 1 -14 -7 -25 -6 -39 4 -10
8 -14 14 -9 14 6 0 15 -5 22 -12 9 -9 12 -8 12 4 0 12 -8 15 -30 14 -21 -2
-27 1 -19 10 6 8 5 13 -6 18 -8 3 -15 0 -15 -6 0 -6 -3 -8 -6 -5 -4 4 -2 13 4
20 9 10 8 14 -3 15 -8 1 -22 3 -30 4 -12 1 -12 4 -2 16 10 13 9 14 -10 3 -13
-7 -23 -8 -23 -2 0 5 -8 12 -17 15 -10 4 -25 21 -34 39 -9 17 -20 32 -25 32
-5 0 -15 4 -23 9 -10 7 -12 6 -6 -4z m-23 -32 c-7 -7 -12 -8 -12 -2 0 14 12
26 19 19 2 -3 -1 -11 -7 -17z m78 -22 c0 -6 -7 -1 -15 10 -8 10 -15 23 -15 28
0 6 7 1 15 -10 8 -10 15 -23 15 -28z m-118 -104 c-7 -2 -9 -9 -5 -15 3 -7 2
-8 -2 -4 -16 14 -14 36 3 29 10 -4 12 -7 4 -10z m32 -38 c3 -8 10 -12 16 -9 5
3 10 4 10 1 0 -15 -20 -13 -35 4 -10 11 -13 20 -8 20 6 0 14 -7 17 -16z m331
-54 c3 -6 -1 -7 -9 -4 -18 7 -21 14 -7 14 6 0 13 -4 16 -10z m130 -110 c11
-17 -5 -32 -21 -19 -7 6 -11 15 -8 20 7 12 21 11 29 -1z m-168 -85 c0 -8 -4
-15 -9 -15 -4 0 -8 7 -8 15 0 8 4 15 8 15 5 0 9 -7 9 -15z m143 -195 c0 -5 -2
-10 -4 -10 -3 0 -8 5 -11 10 -3 6 -1 10 4 10 6 0 11 -4 11 -10z m120 -154 c0
-2 -7 -7 -16 -10 -8 -3 -12 -2 -9 4 6 10 25 14 25 6z m72 -155 c-8 -5 -13 -11
-13 -15 1 -3 -2 -7 -6 -8 -3 -2 -7 4 -8 12 -2 10 6 17 19 18 14 1 17 -1 8 -7z"/>
<path d="M4275 6160 c3 -5 8 -10 11 -10 2 0 4 5 4 10 0 6 -5 10 -11 10 -5 0
-7 -4 -4 -10z"/>
<path d="M3941 6483 c-1 -7 8 -17 19 -23 14 -7 20 -7 20 0 0 5 -6 10 -14 10
-8 0 -17 6 -19 13 -4 9 -6 9 -6 0z"/>
<path d="M3800 6469 c0 -5 5 -7 10 -4 6 3 10 8 10 11 0 2 -4 4 -10 4 -5 0 -10
-5 -10 -11z"/>
<path d="M3882 6270 c7 -11 16 -20 20 -20 5 0 3 9 -4 20 -7 11 -16 20 -20 20
-5 0 -3 -9 4 -20z"/>
<path d="M1795 6240 c3 -5 8 -10 11 -10 2 0 4 5 4 10 0 6 -5 10 -11 10 -5 0
-7 -4 -4 -10z"/>
<path d="M2410 6220 c0 -5 5 -10 11 -10 5 0 7 5 4 10 -3 6 -8 10 -11 10 -2 0
-4 -4 -4 -10z"/>
<path d="M1846 6212 c-3 -5 1 -9 9 -9 8 0 15 4 15 9 0 4 -4 8 -9 8 -6 0 -12
-4 -15 -8z"/>
<path d="M3476 6102 c-3 -5 1 -9 9 -9 8 0 12 4 9 9 -3 4 -7 8 -9 8 -2 0 -6 -4
-9 -8z"/>
<path d="M4126 6042 c-3 -4 4 -9 15 -9 23 -2 25 3 4 10 -8 4 -16 3 -19 -1z"/>
<path d="M4780 6020 c-9 -6 -10 -10 -3 -10 6 0 15 5 18 10 8 12 4 12 -15 0z"/>
<path d="M2444 6002 c4 -3 14 -7 22 -8 9 -1 13 0 10 4 -4 3 -14 7 -22 8 -9 1
-13 0 -10 -4z"/>
<path d="M1236 5934 c-3 -8 -11 -12 -17 -8 -7 4 -9 3 -6 -4 10 -15 40 -8 43
11 3 21 -12 22 -20 1z"/>
<path d="M1233 5880 c-1 -11 2 -20 7 -20 4 0 7 7 6 15 -3 23 -12 26 -13 5z"/>
<path d="M4848 5893 c6 -2 10 -9 6 -14 -3 -5 0 -8 8 -7 7 2 12 -3 10 -10 -1
-8 2 -11 8 -7 13 8 -16 45 -34 44 -6 0 -6 -3 2 -6z"/>
<path d="M4530 5845 c0 -8 4 -15 10 -15 5 0 7 7 4 15 -4 8 -8 15 -10 15 -2 0
-4 -7 -4 -15z"/>
<path d="M2260 5826 c0 -2 7 -9 15 -16 9 -7 15 -8 15 -2 0 5 -7 12 -15 16 -8
3 -15 4 -15 2z"/>
<path d="M4596 5701 c-4 -5 -2 -12 3 -15 5 -4 12 -2 15 3 4 5 2 12 -3 15 -5 4
-12 2 -15 -3z"/>
<path d="M4403 5625 c0 -8 4 -12 9 -9 5 3 6 10 3 15 -9 13 -12 11 -12 -6z"/>
<path d="M6396 5552 c-3 -5 1 -9 9 -9 8 0 12 4 9 9 -3 4 -7 8 -9 8 -2 0 -6 -4
-9 -8z"/>
<path d="M6430 5532 c0 -11 3 -12 13 -3 8 6 17 8 20 4 4 -3 7 -1 7 5 0 6 -9
10 -20 9 -11 -1 -20 -8 -20 -15z"/>
<path d="M6621 5514 c0 -11 3 -14 6 -6 3 7 2 16 -1 19 -3 4 -6 -2 -5 -13z"/>
<path d="M6646 5513 c-6 -14 -5 -15 5 -6 7 7 10 15 7 18 -3 3 -9 -2 -12 -12z"/>
<path d="M3890 5506 c0 -2 7 -9 15 -16 13 -11 14 -10 9 4 -5 14 -24 23 -24 12z"/>
<path d="M4460 5479 c0 -5 5 -7 10 -4 6 3 10 8 10 11 0 2 -4 4 -10 4 -5 0 -10
-5 -10 -11z"/>
<path d="M1380 5470 c-8 -5 -12 -12 -9 -15 4 -3 12 1 19 10 14 17 11 19 -10 5z"/>
<path d="M2839 5458 c-5 -18 -6 -38 -1 -34 7 8 12 36 6 36 -2 0 -4 -1 -5 -2z"/>
<path d="M1430 5402 c0 -4 11 -16 25 -26 13 -10 22 -23 18 -29 -4 -6 -1 -7 6
-2 9 5 5 15 -15 36 -29 31 -34 34 -34 21z"/>
<path d="M3980 5390 c-9 -6 -10 -10 -3 -10 6 0 15 5 18 10 8 12 4 12 -15 0z"/>
<path d="M5085 5360 c3 -5 8 -10 11 -10 2 0 4 5 4 10 0 6 -5 10 -11 10 -5 0
-7 -4 -4 -10z"/>
<path d="M2686 5321 c-3 -5 1 -14 9 -21 10 -9 15 -9 15 -1 0 6 -5 11 -11 11
-5 0 -7 5 -4 10 3 6 4 10 1 10 -3 0 -7 -4 -10 -9z"/>
<path d="M6895 5320 c3 -5 8 -10 11 -10 2 0 4 5 4 10 0 6 -5 10 -11 10 -5 0
-7 -4 -4 -10z"/>
<path d="M6936 5282 c-2 -4 -1 -14 4 -22 7 -11 9 -9 7 8 -1 24 -3 26 -11 14z"/>
<path d="M3020 5202 c0 -7 5 -12 11 -12 5 0 8 -4 4 -9 -3 -5 -1 -12 4 -15 19
-12 20 12 1 29 -12 10 -20 13 -20 7z"/>
<path d="M4130 5169 c0 -5 5 -7 10 -4 6 3 10 8 10 11 0 2 -4 4 -10 4 -5 0 -10
-5 -10 -11z"/>
<path d="M1495 5000 c-3 -5 -1 -10 4 -10 6 0 11 5 11 10 0 6 -2 10 -4 10 -3 0
-8 -4 -11 -10z"/>
<path d="M6836 4993 c-6 -14 -5 -15 5 -6 7 7 10 15 7 18 -3 3 -9 -2 -12 -12z"/>
<path d="M5650 4958 c0 -4 4 -8 9 -8 6 0 12 4 15 8 3 5 -1 9 -9 9 -8 0 -15 -4
-15 -9z"/>
<path d="M6803 4915 c0 -7 6 -11 14 -8 7 3 13 6 13 8 0 2 -6 5 -13 8 -8 3 -14
-1 -14 -8z"/>
<path d="M6767 4853 c-10 -9 -9 -23 2 -23 5 0 11 7 15 15 5 15 -5 20 -17 8z"/>
<path d="M1976 4791 c-5 -7 -5 -15 -2 -18 3 -4 6 0 7 8 0 8 7 1 14 -16 8 -16
14 -23 15 -14 0 24 -25 55 -34 40z"/>
<path d="M845 4688 c4 -11 2 -18 -4 -18 -6 0 -11 -5 -11 -12 0 -8 6 -6 17 5
14 14 15 19 4 29 -10 11 -11 10 -6 -4z"/>
<path d="M1860 4686 c0 -2 8 -10 18 -17 15 -13 16 -12 3 4 -13 16 -21 21 -21
13z"/>
<path d="M3310 4600 c0 -5 5 -10 11 -10 5 0 7 5 4 10 -3 6 -8 10 -11 10 -2 0
-4 -4 -4 -10z"/>
<path d="M2179 4578 c-8 -27 -5 -35 12 -31 15 4 17 8 8 19 -11 13 -18 17 -20
12z"/>
<path d="M3495 4560 c3 -5 11 -10 16 -10 6 0 7 5 4 10 -3 6 -11 10 -16 10 -6
0 -7 -4 -4 -10z"/>
<path d="M3350 4550 c0 -5 5 -10 11 -10 5 0 7 5 4 10 -3 6 -8 10 -11 10 -2 0
-4 -4 -4 -10z"/>
<path d="M3550 4496 c0 -2 7 -7 16 -10 8 -3 12 -2 9 4 -6 10 -25 14 -25 6z"/>
<path d="M3400 4486 c0 -2 7 -9 15 -16 13 -11 14 -10 9 4 -5 14 -24 23 -24 12z"/>
<path d="M6588 4393 c7 -3 16 -2 19 1 4 3 -2 6 -13 5 -11 0 -14 -3 -6 -6z"/>
<path d="M3516 4361 c-3 -5 1 -14 9 -21 10 -9 15 -9 15 -1 0 6 -5 11 -11 11
-5 0 -7 5 -4 10 3 6 4 10 1 10 -3 0 -7 -4 -10 -9z"/>
<path d="M3546 4323 c-6 -14 -5 -15 5 -6 7 7 10 15 7 18 -3 3 -9 -2 -12 -12z"/>
<path d="M950 4325 c0 -11 30 -37 39 -33 5 2 -2 11 -15 21 -13 10 -24 15 -24
12z"/>
<path d="M5555 4300 c4 -6 11 -8 16 -5 14 9 11 15 -7 15 -8 0 -12 -5 -9 -10z"/>
<path d="M2222 4271 c7 -11 16 -17 20 -15 5 3 2 12 -6 20 -21 20 -28 17 -14
-5z"/>
<path d="M5505 4210 c-3 -6 1 -7 9 -4 18 7 21 14 7 14 -6 0 -13 -4 -16 -10z"/>
<path d="M4966 4181 c-3 -5 1 -14 9 -21 10 -9 15 -9 15 -1 0 6 -5 11 -11 11
-5 0 -7 5 -4 10 3 6 4 10 1 10 -3 0 -7 -4 -10 -9z"/>
<path d="M3805 4171 c-3 -5 0 -13 6 -17 7 -4 9 -3 5 4 -3 5 0 13 6 15 9 4 10
6 1 6 -6 1 -14 -3 -18 -8z"/>
<path d="M5039 4113 c-7 -10 -9 -15 -4 -10 4 4 16 0 26 -9 12 -11 19 -12 24
-4 4 6 4 14 1 17 -3 4 -6 1 -6 -6 0 -9 -4 -9 -14 1 -8 7 -12 16 -9 21 9 14 -5
7 -18 -10z"/>
<path d="M5398 4108 c10 -13 10 -17 0 -21 -9 -4 -9 -6 -1 -6 20 -2 24 16 5 30
-15 13 -16 12 -4 -3z"/>
<path d="M1155 4100 c-3 -5 -1 -10 4 -10 6 0 11 5 11 10 0 6 -2 10 -4 10 -3 0
-8 -4 -11 -10z"/>
<path d="M3844 4081 c4 -5 1 -12 -4 -14 -6 -3 -5 -4 2 -3 15 3 23 26 8 26 -6
0 -9 -4 -6 -9z"/>
<path d="M6515 4080 c-3 -5 -1 -10 4 -10 6 0 11 5 11 10 0 6 -2 10 -4 10 -3 0
-8 -4 -11 -10z"/>
<path d="M2460 4015 c7 -8 20 -14 29 -14 13 1 13 2 -1 6 -10 2 -18 9 -18 14 0
5 -5 9 -11 9 -8 0 -8 -5 1 -15z"/>
<path d="M1366 3887 c3 -10 9 -15 12 -12 3 3 0 11 -7 18 -10 9 -11 8 -5 -6z"/>
<path d="M1451 3794 c0 -11 3 -14 6 -6 3 7 2 16 -1 19 -3 4 -6 -2 -5 -13z"/>
<path d="M2696 3787 c3 -10 9 -15 12 -12 3 3 0 11 -7 18 -10 9 -11 8 -5 -6z"/>
<path d="M6510 3780 c0 -5 5 -10 11 -10 5 0 7 5 4 10 -3 6 -8 10 -11 10 -2 0
-4 -4 -4 -10z"/>
<path d="M6527 3664 c-3 -4 -2 -14 3 -24 5 -10 6 -20 3 -24 -3 -3 -1 -6 5 -6
14 0 15 10 2 30 -6 9 -5 17 3 22 8 5 8 8 1 8 -6 0 -14 -3 -17 -6z"/>
<path d="M2831 3634 c0 -11 3 -14 6 -6 3 7 2 16 -1 19 -3 4 -6 -2 -5 -13z"/>
<path d="M3025 3589 c-4 -6 -5 -12 -2 -15 2 -3 7 2 10 11 7 17 1 20 -8 4z"/>
<path d="M2960 3481 c0 -5 7 -14 15 -21 10 -9 15 -9 15 -1 0 6 -5 11 -11 11
-5 0 -7 5 -4 10 3 6 1 10 -4 10 -6 0 -11 -4 -11 -9z"/>
<path d="M1305 3409 c-4 -6 -5 -12 -2 -15 2 -3 7 2 10 11 7 17 1 20 -8 4z"/>
<path d="M1330 3409 c0 -5 5 -7 10 -4 6 3 10 8 10 11 0 2 -4 4 -10 4 -5 0 -10
-5 -10 -11z"/>
<path d="M1410 3409 c0 -5 5 -7 10 -4 6 3 10 8 10 11 0 2 -4 4 -10 4 -5 0 -10
-5 -10 -11z"/>
<path d="M1280 3399 c0 -5 -4 -8 -9 -4 -5 3 -12 1 -15 -4 -4 -5 2 -8 11 -7 15
3 33 26 19 26 -3 0 -6 -5 -6 -11z"/>
<path d="M1436 3402 c-3 -5 1 -9 9 -9 8 0 15 4 15 9 0 4 -4 8 -9 8 -6 0 -12
-4 -15 -8z"/>
<path d="M1470 3391 c0 -5 7 -12 16 -15 14 -5 15 -4 4 9 -14 17 -20 19 -20 6z"/>
<path d="M3130 3306 c0 -3 14 -14 30 -26 26 -18 30 -19 30 -5 0 9 -4 14 -9 10
-5 -3 -16 2 -24 10 -15 15 -27 19 -27 11z"/>
<path d="M6600 3166 c0 -2 8 -10 18 -17 15 -13 16 -12 3 4 -13 16 -21 21 -21
13z"/>
<path d="M993 3153 c4 -6 2 -13 -5 -15 -8 -3 -6 -6 4 -10 17 -7 19 15 3 29 -4
4 -5 3 -2 -4z"/>
<path d="M2035 2980 c3 -5 8 -10 11 -10 2 0 4 5 4 10 0 6 -5 10 -11 10 -5 0
-7 -4 -4 -10z"/>
<path d="M6624 2908 c-3 -4 2 -8 10 -8 8 0 17 4 20 8 3 5 -2 9 -10 9 -8 0 -17
-4 -20 -9z"/>
<path d="M2360 2836 c0 -2 7 -7 16 -10 8 -3 12 -2 9 4 -6 10 -25 14 -25 6z"/>
<path d="M1088 2781 c12 -10 19 -21 15 -25 -3 -3 -1 -6 5 -6 7 0 12 4 12 8 0
11 -34 42 -45 42 -4 0 2 -8 13 -19z"/>
<path d="M710 2660 c12 -22 12 -24 -2 -12 -13 10 -19 10 -31 -2 -13 -14 -16
-14 -21 0 -3 8 -2 12 3 9 5 -3 12 -1 15 4 4 5 -2 8 -11 6 -10 -1 -17 -7 -16
-13 1 -6 -9 -9 -22 -7 -13 1 -22 -2 -19 -6 3 -5 -2 -9 -11 -9 -10 0 -13 5 -9
12 5 7 3 8 -5 4 -7 -5 -10 -14 -7 -22 3 -7 1 -16 -4 -19 -6 -4 -10 -11 -10
-16 0 -6 4 -8 8 -5 5 3 9 0 10 -7 2 -26 9 -47 17 -54 4 -4 5 -3 1 4 -3 6 -1
15 5 19 7 4 9 3 6 -3 -4 -6 0 -19 7 -29 10 -13 11 -23 4 -31 -11 -14 5 -43 24
-43 5 0 2 7 -6 16 -20 19 -20 21 -1 21 8 0 12 -4 9 -8 -2 -4 0 -10 5 -14 5 -3
8 -14 6 -25 -2 -11 1 -20 6 -20 6 0 7 -5 3 -12 -5 -8 -2 -9 11 -4 15 6 16 4 4
-10 -11 -14 -10 -15 5 -12 12 2 20 -4 21 -15 2 -9 -1 -15 -6 -11 -5 3 -9 0 -9
-5 0 -6 10 -11 23 -11 18 0 19 -2 7 -10 -13 -9 -13 -10 0 -10 13 0 13 -1 0
-10 -8 -5 -10 -10 -4 -10 5 0 15 5 22 12 14 14 16 0 3 -21 -10 -16 8 -53 22
-44 4 3 1 11 -9 17 -16 12 -16 13 0 19 9 4 15 3 12 -2 -3 -5 1 -14 9 -21 11
-9 12 -17 5 -30 -15 -27 -12 -37 3 -15 11 14 16 15 22 5 5 -9 4 -11 -3 -6 -7
4 -12 2 -12 -3 0 -6 7 -11 16 -11 8 0 13 -4 10 -9 -3 -5 1 -11 9 -15 8 -3 12
-12 9 -21 -7 -18 7 -20 23 -4 9 9 11 8 9 -4 -1 -9 -6 -20 -11 -24 -4 -4 -5 -2
0 6 5 10 4 12 -4 7 -15 -10 -3 -29 14 -22 7 2 16 -2 19 -10 3 -8 2 -12 -3 -9
-5 3 -13 0 -17 -6 -4 -7 -3 -9 4 -5 6 3 13 2 17 -4 4 -6 11 -8 16 -5 5 4 9 1
9 -5 0 -6 5 -8 13 -4 9 6 9 4 1 -7 -9 -12 -10 -23 -5 -44 0 -3 10 -1 21 5 16
9 18 8 14 -5 -8 -20 25 -57 44 -50 12 4 12 2 3 -8 -16 -20 10 -42 29 -24 10 9
11 9 6 0 -4 -7 -2 -13 3 -13 6 0 11 -9 11 -20 0 -11 5 -20 11 -20 5 0 7 -5 3
-12 -4 -6 -3 -8 4 -4 6 3 15 -1 20 -11 13 -23 46 -27 37 -5 -5 13 -4 14 6 5 9
-9 9 -16 1 -25 -8 -10 -8 -18 0 -28 8 -13 9 -12 5 2 -4 12 0 16 13 15 15 -1
17 -4 7 -16 -10 -12 -8 -13 13 -6 21 7 23 6 12 -7 -10 -13 -9 -18 5 -29 11 -9
14 -10 9 -1 -4 6 -2 12 3 12 6 0 11 -7 11 -15 0 -8 4 -15 10 -15 5 0 8 6 6 13
-1 6 -1 9 1 4 3 -4 10 -4 16 0 7 3 3 -3 -7 -15 -11 -12 -14 -22 -8 -22 6 0 14
5 17 11 5 7 13 5 24 -5 10 -9 21 -14 24 -11 4 3 5 2 2 -2 -3 -3 4 -13 16 -21
12 -8 19 -22 16 -32 -5 -18 8 -21 30 -7 8 5 11 1 8 -14 -3 -17 -2 -20 7 -11 8
8 15 7 25 -6 8 -9 12 -11 8 -5 -4 9 -1 11 9 7 9 -3 16 -13 16 -21 0 -8 5 -11
10 -8 6 3 10 1 10 -4 0 -6 5 -11 11 -11 5 0 7 5 3 12 -4 7 -3 8 5 4 9 -6 9
-11 -1 -24 -8 -10 -9 -13 -1 -9 7 4 16 0 23 -10 8 -15 9 -13 5 12 l-5 30 11
-27 c7 -18 18 -28 30 -28 13 0 18 4 13 12 -4 7 -3 8 4 4 6 -4 9 -14 6 -24 -5
-14 -2 -13 11 3 12 14 16 16 15 5 -5 -33 0 -41 20 -35 13 4 22 1 26 -9 3 -9
10 -16 16 -16 5 0 7 4 4 8 -3 5 1 9 10 9 10 0 12 -7 8 -21 -4 -17 -3 -18 5 -6
6 8 11 11 11 6 0 -5 6 -3 13 3 8 6 18 7 22 3 5 -4 5 -1 1 6 -6 9 -11 10 -20 3
-9 -8 -13 -7 -13 3 0 8 9 13 23 11 21 -2 22 -1 8 21 -9 13 -11 25 -5 28 5 3 8
17 7 31 -2 13 1 22 6 19 5 -3 7 -12 4 -20 -3 -8 -2 -14 3 -14 5 0 11 11 13 25
3 14 1 25 -3 25 -5 0 -9 4 -9 10 0 5 8 6 17 3 13 -5 12 -1 -5 17 -18 19 -25
21 -35 11 -10 -10 -8 -11 6 -6 9 4 17 3 17 -3 0 -6 -8 -9 -17 -8 -13 2 -17 11
-16 29 2 22 0 25 -11 14 -8 -6 -11 -16 -8 -22 3 -5 -2 -4 -11 4 -9 7 -17 19
-17 27 0 7 -5 16 -12 20 -8 5 -9 2 -5 -10 6 -14 3 -15 -13 -6 -11 6 -20 15
-20 20 0 5 -7 16 -16 25 -13 13 -19 13 -32 3 -12 -10 -14 -10 -8 0 5 8 1 12
-11 12 -22 0 -49 36 -31 42 7 3 5 7 -6 11 -10 4 -15 3 -11 -3 3 -6 0 -10 -7
-10 -8 0 -6 -5 5 -11 9 -5 17 -14 17 -19 0 -6 -9 -2 -19 7 -11 9 -17 23 -13
32 5 14 4 14 -11 2 -10 -8 -20 -11 -24 -7 -3 3 -2 6 4 6 5 0 10 7 10 15 0 12
-3 12 -16 2 -12 -9 -13 -9 -7 1 4 6 3 12 -1 12 -5 0 -18 7 -29 15 -19 15 -19
15 1 8 11 -3 17 -3 14 1 -4 4 -17 9 -30 12 -13 3 -31 7 -39 9 -8 2 -17 4 -19
4 -2 1 3 8 10 18 13 15 11 16 -13 11 -24 -4 -26 -3 -18 13 13 23 12 29 -1 29
-5 0 -7 -4 -4 -10 3 -5 2 -10 -3 -10 -6 0 -15 14 -21 30 -12 35 -25 41 -16 8
5 -20 5 -21 -5 -5 -6 10 -16 14 -23 10 -7 -4 -3 6 7 22 l19 30 -22 -20 c-17
-15 -22 -16 -20 -5 3 20 -11 50 -23 50 -6 0 -4 -8 3 -17 12 -16 12 -17 -2 -6
-9 7 -18 10 -22 7 -3 -3 -3 4 0 17 5 18 3 21 -10 16 -17 -6 -52 37 -43 52 3 5
-1 14 -9 21 -8 7 -12 16 -9 21 3 5 -2 6 -10 3 -9 -3 -16 -1 -16 4 0 6 -10 14
-21 17 -17 6 -19 9 -8 16 12 7 11 9 -1 9 -13 0 -13 1 0 10 8 5 10 10 5 10 -6
0 -17 -6 -24 -12 -11 -11 -12 -9 -7 9 5 16 2 25 -12 32 -11 6 -23 7 -27 3 -5
-4 -5 -1 -1 6 4 7 12 9 18 6 7 -5 8 -2 4 5 -5 7 -14 10 -22 7 -7 -3 -16 0 -20
6 -4 7 -3 8 4 4 7 -4 12 -2 12 3 0 6 -4 11 -10 11 -5 0 -10 8 -10 18 0 10 -9
24 -20 32 -11 8 -20 22 -20 32 0 9 -5 20 -11 24 -8 4 -7 9 2 16 10 6 7 7 -8 3
-19 -5 -23 -2 -23 16 0 19 2 20 17 8 15 -13 15 -12 3 7 -13 21 -15 21 -29 5
-9 -9 -13 -12 -10 -6 15 24 6 43 -18 39 -21 -4 -22 -2 -11 10 7 7 18 11 23 8
6 -3 4 2 -4 11 -10 13 -17 14 -27 7 -10 -9 -11 -6 -7 12 4 19 3 20 -7 8 -9
-12 -10 -11 -5 9 5 15 3 21 -3 17 -6 -3 -14 -1 -18 5 -4 7 -3 9 3 6 12 -7 25
17 16 27 -4 3 -14 6 -23 6 -10 0 -24 8 -31 18 -13 15 -12 16 3 4 10 -8 23 -12
30 -9 8 4 7 6 -4 6 -10 1 -18 6 -18 12 0 6 -6 9 -14 6 -7 -3 -19 0 -26 6 -10
9 -9 6 0 -13z m-63 -36 c-3 -3 -12 -4 -19 -1 -8 3 -5 6 6 6 11 1 17 -2 13 -5z
m203 -138 c0 -2 -7 -7 -16 -10 -8 -3 -12 -2 -9 4 6 10 25 14 25 6z m45 -77
c11 -16 1 -19 -13 -3 -7 8 -8 14 -3 14 5 0 13 -5 16 -11z m42 -75 c-3 -3 -12
-4 -19 -1 -8 3 -5 6 6 6 11 1 17 -2 13 -5z m173 -208 c0 -3 -4 -8 -10 -11 -5
-3 -10 -1 -10 4 0 6 5 11 10 11 6 0 10 -2 10 -4z m-175 -95 c3 -5 2 -12 -3
-15 -5 -3 -9 1 -9 9 0 17 3 19 12 6z m270 -21 c-3 -5 -12 -10 -18 -10 -7 0 -6
4 3 10 19 12 23 12 15 0z m-225 -10 c0 -5 -5 -10 -11 -10 -5 0 -7 5 -4 10 3 6
8 10 11 10 2 0 4 -4 4 -10z m30 -14 c0 -2 -6 -9 -14 -15 -11 -9 -16 -9 -22 0
-4 7 -3 9 4 5 6 -3 13 -2 17 4 6 10 15 14 15 6z m74 -107 c-2 -4 3 -12 12 -17
9 -5 15 -14 13 -19 -2 -5 -14 2 -26 17 -15 19 -18 27 -8 27 8 0 12 -4 9 -8z
m506 -170 c0 -5 -5 -9 -12 -9 -6 0 -8 3 -5 7 4 3 1 13 -6 22 -11 14 -10 14 6
2 9 -7 17 -17 17 -22z m-237 -54 c-3 -9 -8 -14 -10 -11 -3 3 -2 9 2 15 9 16
15 13 8 -4z m257 -139 c0 -3 -4 -8 -10 -11 -5 -3 -10 -1 -10 4 0 6 5 11 10 11
6 0 10 -2 10 -4z"/>
<path d="M615 2660 c3 -5 8 -10 11 -10 2 0 4 5 4 10 0 6 -5 10 -11 10 -5 0 -7
-4 -4 -10z"/>
<path d="M2544 2642 c4 -3 14 -7 22 -8 9 -1 13 0 10 4 -4 3 -14 7 -22 8 -9 1
-13 0 -10 -4z"/>
<path d="M545 2609 c-11 -16 -1 -19 13 -3 7 8 8 14 3 14 -5 0 -13 -5 -16 -11z"/>
<path d="M1250 2593 c0 -6 7 -16 15 -23 8 -6 13 -15 12 -18 -2 -7 11 -14 16
-9 1 1 -8 15 -20 31 -13 16 -23 24 -23 19z"/>
<path d="M816 2578 c3 -5 10 -6 15 -3 13 9 11 12 -6 12 -8 0 -12 -4 -9 -9z"/>
<path d="M590 2506 c0 -2 7 -7 16 -10 8 -3 12 -2 9 4 -6 10 -25 14 -25 6z"/>
<path d="M185 2470 c-4 -6 -11 -7 -17 -4 -7 4 -8 2 -4 -5 6 -9 12 -9 24 1 15
12 16 11 3 -5 -8 -9 -16 -15 -19 -13 -2 3 -14 0 -26 -6 -19 -10 -20 -10 -7 6
8 9 11 19 7 23 -3 3 -6 1 -6 -6 0 -8 -8 -11 -20 -8 -15 4 -20 0 -20 -16 0 -17
-2 -19 -9 -7 -6 8 -8 17 -6 20 2 3 -5 6 -15 6 -14 0 -16 -4 -10 -17 12 -22 5
-27 -33 -23 -18 1 -26 0 -19 -3 10 -4 10 -8 1 -19 -10 -12 -9 -13 6 -8 13 5
16 4 11 -4 -5 -8 -1 -10 11 -5 10 3 15 3 11 -2 -4 -4 -3 -14 4 -22 8 -10 8
-13 -3 -10 -8 2 -11 2 -6 0 4 -3 5 -9 2 -13 -7 -11 32 -33 44 -26 4 3 6 -6 3
-21 -4 -20 -2 -24 9 -18 11 6 12 5 2 -6 -7 -7 -13 -18 -13 -23 0 -6 5 -4 10 4
8 12 10 12 10 1 0 -8 8 -20 18 -28 9 -8 11 -12 4 -8 -6 3 -12 1 -12 -4 0 -6 5
-11 11 -11 6 0 8 -7 5 -16 -3 -8 -2 -12 4 -9 10 6 15 -9 10 -30 -1 -5 4 -4 11
3 7 6 17 12 23 12 6 0 5 -5 -2 -12 -18 -18 -14 -31 8 -25 10 3 19 2 18 -2 -2
-21 3 -31 15 -25 7 4 9 3 4 -2 -5 -5 -13 -9 -18 -9 -5 0 -8 -4 -6 -10 1 -5 9
-10 18 -9 9 1 16 -5 16 -12 0 -7 -4 -11 -8 -8 -4 2 -11 -1 -15 -7 -4 -8 -3 -9
4 -5 7 4 12 2 12 -5 0 -8 4 -8 15 1 8 7 12 17 8 23 -4 6 -1 7 6 2 9 -5 10 -10
2 -18 -14 -14 -14 -37 0 -37 5 0 7 5 3 12 -4 6 -3 9 2 5 5 -3 9 -21 8 -40 -1
-23 3 -34 12 -34 10 0 11 4 4 11 -13 13 -13 26 0 26 6 0 9 -6 8 -12 -2 -7 3
-12 10 -10 10 2 10 -2 1 -19 -10 -19 -9 -21 6 -15 15 5 16 4 5 -9 -12 -14 -10
-15 12 -11 25 4 31 -6 16 -29 -4 -6 -3 -17 3 -25 5 -9 9 -10 9 -4 0 7 7 14 15
18 13 5 14 2 4 -15 -6 -12 -7 -19 -1 -15 5 3 13 -1 16 -10 3 -8 2 -12 -3 -9
-5 3 -12 2 -15 -3 -2 -4 7 -9 21 -10 40 -3 55 -20 41 -46 -10 -19 -10 -20 5
-7 20 16 23 1 5 -18 -11 -10 -10 -12 2 -9 8 2 14 -3 12 -10 -1 -8 2 -11 9 -6
7 4 20 -3 30 -17 l18 -24 -4 23 c-2 12 0 20 5 17 10 -6 8 -24 -4 -44 -6 -9 -5
-12 2 -7 5 3 12 1 14 -4 2 -6 13 -12 24 -12 11 -1 21 -8 21 -15 0 -10 -4 -10
-11 -3 -5 5 -17 10 -25 10 -9 0 2 -9 24 -21 53 -28 99 -75 92 -94 -7 -18 9
-30 19 -14 5 8 3 9 -6 4 -9 -5 -11 -4 -6 4 9 14 26 5 26 -15 0 -8 4 -14 9 -14
6 0 8 -9 6 -20 -2 -12 0 -18 6 -15 5 4 7 10 4 15 -3 4 1 10 9 13 10 4 12 -3
10 -26 -1 -18 0 -26 3 -18 4 10 9 8 19 -10 10 -19 13 -20 14 -6 0 9 4 17 9 17
5 0 8 -8 7 -17 0 -11 5 -17 13 -15 11 2 12 0 2 -11 -9 -12 -8 -16 4 -21 10 -3
13 -11 9 -18 -6 -10 -4 -11 7 0 17 16 32 15 26 -2 -4 -9 2 -12 19 -10 13 1 22
-2 18 -7 -3 -5 -9 -7 -14 -4 -5 3 -12 0 -16 -6 -4 -7 -3 -9 4 -5 6 3 14 2 17
-4 5 -8 11 -7 21 1 11 9 14 9 14 0 0 -7 5 -9 10 -6 6 4 10 3 9 -2 -5 -29 3
-43 26 -43 17 0 23 -4 19 -14 -7 -18 12 -30 22 -15 5 8 3 9 -6 4 -9 -5 -11 -4
-6 4 4 6 12 9 17 5 5 -3 7 -10 4 -15 -4 -5 0 -9 8 -9 8 0 17 -9 20 -20 3 -11
11 -20 19 -20 11 0 11 2 -1 9 -9 6 -4 8 15 8 16 0 23 -2 17 -4 -7 -3 -13 -12
-13 -21 0 -15 2 -15 10 -2 9 13 10 13 11 0 1 -8 1 -18 0 -22 -2 -12 17 -9 25
3 9 16 27 -17 19 -34 -4 -6 0 -4 8 6 16 19 32 24 21 5 -5 -7 -2 -9 9 -5 11 4
14 2 10 -9 -5 -13 7 -18 35 -15 6 1 12 -3 12 -9 0 -6 6 -8 12 -4 10 6 10 4 0
-8 -10 -13 -10 -18 -1 -24 7 -4 9 -3 6 3 -4 6 0 14 9 17 12 4 15 2 11 -9 -9
-21 9 -28 27 -9 15 14 16 14 16 -6 0 -16 4 -20 16 -16 9 3 12 2 9 -4 -4 -7 3
-9 19 -6 15 3 24 1 21 -5 -4 -5 -10 -7 -15 -4 -5 3 -11 1 -15 -4 -3 -6 5 -8
20 -5 14 2 25 0 25 -6 0 -6 4 -8 10 -5 9 6 14 -8 11 -28 -1 -5 3 -6 9 -2 6 4
10 16 8 28 -2 15 2 22 13 22 19 0 49 23 49 37 0 5 -6 8 -13 5 -6 -2 -11 -10
-9 -16 1 -6 -2 -11 -8 -11 -14 0 -13 13 2 28 9 9 9 12 -1 12 -8 0 -2 9 13 21
19 15 24 24 16 33 -5 7 -7 15 -4 19 3 3 1 16 -6 29 -10 21 -10 21 3 5 13 -16
15 -16 21 -2 3 9 2 13 -4 10 -6 -3 -10 -1 -10 6 0 7 -8 9 -21 6 -16 -4 -18 -3
-8 9 9 11 9 14 0 14 -7 0 -9 5 -5 12 4 7 3 8 -5 4 -6 -4 -9 -11 -6 -16 3 -4
-1 -10 -9 -13 -10 -4 -12 0 -9 14 4 16 0 19 -26 19 -22 0 -31 5 -31 16 0 12
-6 15 -21 11 -16 -4 -19 -2 -15 10 5 13 4 14 -8 4 -12 -10 -18 -7 -31 19 -9
17 -20 28 -25 25 -4 -3 -10 -2 -13 2 -2 5 -3 3 -1 -4 4 -16 -20 -10 -40 9 -10
10 -12 19 -6 23 5 3 10 12 9 18 0 9 -2 9 -6 0 -2 -7 -11 -13 -19 -13 -9 0 -12
5 -8 13 6 10 4 10 -7 0 -7 -7 -18 -13 -23 -13 -6 0 -4 5 4 10 10 6 11 10 3 10
-7 0 -13 5 -13 11 0 5 6 7 13 3 6 -4 3 2 -7 14 -20 23 -36 31 -18 10 7 -9 5
-17 -6 -28 -14 -13 -15 -12 -9 4 5 13 2 19 -13 23 -15 4 -18 9 -10 18 8 10 8
15 -1 21 -7 4 -9 3 -6 -3 4 -6 0 -14 -9 -17 -10 -4 -13 -2 -8 6 5 8 2 9 -11 4
-15 -5 -16 -4 -5 9 7 9 10 18 6 22 -3 3 -6 1 -6 -5 0 -7 -5 -12 -11 -12 -5 0
-7 5 -4 10 3 6 1 10 -5 10 -6 0 -8 5 -5 10 3 6 1 10 -4 10 -6 0 -11 -4 -11
-10 0 -5 -5 -10 -11 -10 -5 0 -8 4 -5 9 4 5 0 11 -6 14 -10 3 -10 8 2 23 14
17 14 18 -2 6 -13 -11 -21 -11 -35 -2 -17 11 -17 11 0 6 11 -4 16 -2 11 5 -3
6 -14 9 -24 6 -11 -3 -21 1 -24 9 -3 9 0 11 12 7 14 -6 14 -4 -2 12 -11 11
-24 20 -30 21 -6 0 -17 2 -24 2 -7 1 -10 7 -6 13 4 8 9 7 15 -2 5 -8 9 -9 9
-3 0 21 -25 35 -40 21 -10 -9 -11 -9 -6 1 7 11 -6 17 -29 12 -5 -1 -7 2 -3 6
4 4 3 13 -4 21 -6 7 -8 16 -4 20 3 3 6 1 6 -5 0 -6 10 -16 23 -22 20 -10 20
-10 5 3 -10 8 -18 19 -18 26 0 17 -18 13 -30 -6 -8 -14 -10 -14 -9 -3 3 34 -1
43 -14 32 -10 -8 -12 -5 -11 16 2 37 -3 43 -30 32 -25 -9 -29 1 -12 28 7 11 4
12 -11 4 -21 -12 -21 -11 -24 44 -1 18 -4 22 -10 13 -4 -7 -5 -17 -3 -21 3 -4
-2 -5 -10 -2 -9 3 -16 17 -16 31 0 18 -4 24 -14 20 -9 -4 -21 5 -31 20 -10 14
-12 22 -6 19 6 -4 11 -2 11 3 0 6 -4 11 -10 11 -5 0 -10 7 -10 16 0 11 -6 15
-20 11 -11 -3 -17 -1 -14 4 3 6 0 18 -7 27 -10 12 -8 12 9 -2 18 -16 22 -17
17 -4 -9 24 -33 30 -43 11 -8 -14 -10 -13 -15 1 -4 10 -3 15 3 11 6 -3 10 1
10 10 0 10 -5 13 -12 9 -8 -5 -7 0 2 11 9 11 10 16 3 11 -7 -4 -13 -3 -13 2 0
4 -9 18 -21 31 -11 12 -18 29 -15 37 4 12 1 11 -22 -2 -15 -9 -20 -10 -11 -3
19 17 21 46 2 46 -9 0 -10 -4 -1 -14 8 -11 7 -12 -6 -7 -19 7 -20 15 -3 33 10
11 9 12 -2 6 -10 -6 -13 -4 -9 7 4 8 2 21 -3 29 -6 10 -9 10 -9 2 0 -7 -4 -13
-8 -13 -13 0 -11 34 2 43 6 4 -1 5 -17 3 -15 -3 -25 -1 -22 4 3 4 2 10 -2 13
-5 2 -2 2 5 1 6 -2 12 1 12 6 0 6 -7 10 -15 10 -13 0 -21 26 -16 53 1 5 -3 6
-8 2 -6 -3 -8 -13 -5 -23 5 -13 4 -14 -4 -3 -5 7 -7 21 -5 31 3 11 -4 24 -17
33 -13 9 -17 17 -11 22 6 3 11 12 11 18 0 7 -4 6 -10 -3 -9 -13 -10 -13 -11 0
-1 8 -1 19 0 23 1 5 -3 6 -9 2 -6 -3 -8 -10 -5 -15 3 -5 0 -12 -6 -16 -7 -4
-9 -3 -5 4 3 6 2 14 -4 17 -8 5 -7 11 1 21 10 12 8 18 -7 29 -29 22 -39 18
-13 -6 22 -19 23 -19 2 -10 -18 9 -22 8 -26 -7 -4 -13 -5 -12 -6 5 -1 25 -16
38 -26 23z m-140 -70 c3 -5 1 -10 -4 -10 -6 0 -11 5 -11 10 0 6 2 10 4 10 3 0
8 -4 11 -10z m274 -63 c0 -9 -2 -8 -6 1 -2 6 -10 9 -15 6 -7 -4 -8 -2 -4 5 9
13 26 5 25 -12z m-244 -17 c3 -6 -1 -7 -9 -4 -18 7 -21 14 -7 14 6 0 13 -4 16
-10z m340 -140 c-3 -5 -12 -10 -18 -10 -7 0 -6 4 3 10 19 12 23 12 15 0z m156
-263 c-10 -9 -11 -8 -5 6 3 10 9 15 12 12 3 -3 0 -11 -7 -18z m186 -189 c2
-17 0 -19 -7 -8 -5 8 -6 18 -4 22 8 12 10 10 11 -14z m-257 -14 c0 -2 -7 -4
-15 -4 -8 0 -15 4 -15 10 0 5 7 7 15 4 8 -4 15 -8 15 -10z m340 -350 c0 -8
-19 -13 -24 -6 -3 5 1 9 9 9 8 0 15 -2 15 -3z m444 -69 c3 -8 1 -15 -4 -15 -6
0 -10 7 -10 15 0 8 2 15 4 15 2 0 6 -7 10 -15z"/>
<path d="M2625 2448 c4 -9 13 -19 21 -22 10 -4 12 -2 8 6 -5 8 -2 9 10 5 11
-4 15 -3 11 4 -4 6 -13 8 -20 5 -7 -2 -18 1 -24 7 -9 9 -11 8 -6 -5z"/>
<path d="M15 2440 c-3 -5 -1 -10 4 -10 6 0 11 5 11 10 0 6 -2 10 -4 10 -3 0
-8 -4 -11 -10z"/>
<path d="M2830 2336 c0 -2 8 -10 18 -17 15 -13 16 -12 3 4 -13 16 -21 21 -21
13z"/>
<path d="M1127 2117 c-3 -7 1 -21 9 -32 8 -10 14 -14 14 -8 0 7 -5 15 -11 19
-8 5 -8 9 1 14 8 5 8 10 2 14 -5 3 -12 0 -15 -7z"/>
<path d="M180 2090 c-9 -6 -10 -10 -3 -10 6 0 15 5 18 10 8 12 4 12 -15 0z"/>
<path d="M616 1902 c-2 -4 -1 -14 4 -22 7 -11 9 -9 7 8 -1 24 -3 26 -11 14z"/>
<path d="M1350 1889 c0 -5 5 -7 10 -4 6 3 10 8 10 11 0 2 -4 4 -10 4 -5 0 -10
-5 -10 -11z"/>
<path d="M330 1880 c0 -5 5 -10 11 -10 5 0 7 5 4 10 -3 6 -8 10 -11 10 -2 0
-4 -4 -4 -10z"/>
<path d="M2098 1782 c4 -10 7 -12 10 -4 2 7 9 9 15 5 7 -3 8 -2 4 2 -14 16
-36 14 -29 -3z"/>
<path d="M418 1773 c6 -2 9 -10 6 -15 -4 -7 -2 -8 5 -4 13 9 5 26 -12 25 -9 0
-8 -2 1 -6z"/>
<path d="M730 1770 c-9 -6 -10 -10 -3 -10 6 0 15 5 18 10 8 12 4 12 -15 0z"/>
<path d="M2170 1736 c0 -2 7 -7 16 -10 8 -3 12 -2 9 4 -6 10 -25 14 -25 6z"/>
<path d="M1253 1705 c0 -8 4 -12 8 -9 4 2 9 -2 12 -8 2 -7 7 -10 11 -7 3 3 -2
13 -12 22 -15 14 -19 15 -19 2z"/>
<path d="M1294 1669 c-4 -7 -3 -9 4 -5 5 3 13 0 15 -6 4 -9 6 -10 6 -1 1 17
-16 25 -25 12z"/>
<path d="M1398 1583 c7 -3 16 -2 19 1 4 3 -2 6 -13 5 -11 0 -14 -3 -6 -6z"/>
<path d="M594 1558 c-4 -7 -4 -10 1 -6 4 4 17 -4 27 -18 11 -14 22 -23 25 -21
2 3 -7 17 -21 31 -18 20 -26 24 -32 14z"/>
<path d="M1724 1542 c-9 -5 -8 -10 1 -19 11 -10 13 -9 12 7 -1 11 -1 20 -2 20
0 0 -5 -4 -11 -8z"/>
<path d="M6529 1528 c-8 -27 -5 -36 9 -30 10 4 12 7 4 10 -7 2 -10 8 -6 13 3
5 3 9 0 9 -3 0 -6 -1 -7 -2z"/>
<path d="M2556 1362 c-3 -5 1 -9 9 -9 8 0 12 4 9 9 -3 4 -7 8 -9 8 -2 0 -6 -4
-9 -8z"/>
<path d="M1226 1327 c3 -10 9 -15 12 -12 3 3 0 11 -7 18 -10 9 -11 8 -5 -6z"/>
<path d="M897 1276 c-4 -10 -1 -13 8 -9 8 3 12 9 9 14 -7 12 -11 11 -17 -5z"/>
<path d="M1436 985 c4 -8 8 -15 10 -15 2 0 4 7 4 15 0 8 -4 15 -10 15 -5 0 -7
-7 -4 -15z"/>
<path d="M1376 958 c3 -5 10 -6 15 -3 13 9 11 12 -6 12 -8 0 -12 -4 -9 -9z"/>
<path d="M3210 820 c0 -5 5 -10 11 -10 5 0 7 5 4 10 -3 6 -8 10 -11 10 -2 0
-4 -4 -4 -10z"/>
<path d="M5987 799 c7 -7 15 -10 18 -7 3 3 -2 9 -12 12 -14 6 -15 5 -6 -5z"/>
<path d="M5947 777 c-3 -8 1 -14 8 -14 7 0 11 6 8 14 -3 7 -6 13 -8 13 -2 0
-5 -6 -8 -13z"/>
<path d="M3266 766 c3 -8 13 -17 22 -21 13 -5 13 -2 -3 15 -21 24 -26 25 -19
6z"/>
<path d="M3490 586 c0 -11 30 -39 36 -34 2 3 -5 13 -16 23 -11 10 -20 15 -20
11z"/>
<path d="M3643 465 c0 -8 3 -13 5 -10 3 3 12 -1 21 -7 10 -8 9 -4 -3 10 -23
26 -23 26 -23 7z"/>
<path d="M5390 358 c0 -4 4 -8 9 -8 6 0 12 4 15 8 3 5 -1 9 -9 9 -8 0 -15 -4
-15 -9z"/>
<path d="M5313 315 c0 -8 4 -12 9 -9 4 3 8 9 8 15 0 5 -4 9 -8 9 -5 0 -9 -7
-9 -15z"/>
<path d="M3921 284 c0 -11 3 -14 6 -6 3 7 2 16 -1 19 -3 4 -6 -2 -5 -13z"/>
<path d="M4091 223 c-1 -17 16 -25 25 -12 4 7 3 9 -4 5 -5 -3 -13 0 -15 6 -4
9 -6 10 -6 1z"/>
<path d="M5004 208 c-4 -6 -3 -8 4 -4 5 3 13 0 15 -6 3 -8 6 -6 6 5 1 19 -14
23 -25 5z"/>
<path d="M4415 149 c-4 -6 -5 -12 -2 -15 2 -3 7 2 10 11 7 17 1 20 -8 4z"/>
<path d="M4463 147 c0 -8 6 -14 13 -14 7 0 10 6 7 14 -3 7 -8 13 -12 13 -4 0
-8 -6 -8 -13z"/>
<path d="M4496 146 c3 -8 14 -14 24 -13 17 1 18 12 2 12 -4 0 -13 4 -19 8 -9
6 -11 3 -7 -7z"/>
</g>
</svg>
